<svg width="24" height="24" viewBox="0 0 24 24" fill="none" xmlns="http://www.w3.org/2000/svg">
<path d="M3.75 4.49997C3.55109 4.49997 3.36032 4.57899 3.21967 4.71964C3.07902 4.86029 3 5.05106 3 5.24997C3 5.44888 3.07902 5.63965 3.21967 5.7803C3.36032 5.92095 3.55109 5.99997 3.75 5.99997H5.415L7.383 13.875C7.55025 14.5425 8.148 15 8.83575 15H17.4382C18.1155 15 18.6908 14.55 18.8685 13.8975L20.8125 6.74997H8.25L8.625 8.24997H18.867L17.4375 13.5H8.835L6.86775 5.62497C6.78649 5.30189 6.59916 5.01543 6.33576 4.81146C6.07236 4.60748 5.74813 4.4978 5.415 4.49997H3.75ZM16.5 15C15.2662 15 14.25 16.0162 14.25 17.25C14.25 18.4837 15.2662 19.5 16.5 19.5C17.7338 19.5 18.75 18.4837 18.75 17.25C18.75 16.0162 17.7338 15 16.5 15ZM9.75 15C8.51625 15 7.5 16.0162 7.5 17.25C7.5 18.4837 8.51625 19.5 9.75 19.5C10.9837 19.5 12 18.4837 12 17.25C12 16.0162 10.9837 15 9.75 15ZM9.75 16.5C10.173 16.5 10.5 16.827 10.5 17.25C10.5 17.673 10.173 18 9.75 18C9.327 18 9 17.673 9 17.25C9 16.827 9.327 16.5 9.75 16.5ZM16.5 16.5C16.923 16.5 17.25 16.827 17.25 17.25C17.25 17.673 16.923 18 16.5 18C16.077 18 15.75 17.673 15.75 17.25C15.75 16.827 16.077 16.5 16.5 16.5Z" fill="white"/>
</svg>
