<svg width="24" height="24" viewBox="0 0 24 24" fill="none" xmlns="http://www.w3.org/2000/svg">
<path d="M6.28571 4V6.28571H4V7.80952H6.28571V10.0952H7.80952V7.80952H10.0952V6.28571H7.80952V4H6.28571ZM11.619 6.28571V7.80952H18.4762V9.33333H13.9048C13.0667 9.33333 12.381 10.019 12.381 10.8571V15.4286C12.381 16.2667 13.0667 16.9524 13.9048 16.9524H18.4762V18.4762H7.80952V11.619H6.28571V18.4762C6.28571 18.8803 6.44626 19.2679 6.73203 19.5537C7.0178 19.8395 7.40538 20 7.80952 20H18.4762C19.3143 20 20 19.3143 20 18.4762V16.739C20.2303 16.6061 20.4218 16.4152 20.5555 16.1853C20.6891 15.9554 20.7603 15.6945 20.7619 15.4286V10.8571C20.7603 10.5912 20.6891 10.3303 20.5555 10.1004C20.4218 9.87054 20.2303 9.67963 20 9.54667V7.80952C20 6.97143 19.3143 6.28571 18.4762 6.28571H11.619ZM13.9048 10.8571H19.2381V15.4286H13.9048V10.8571ZM16.1905 12C15.8874 12 15.5967 12.1204 15.3824 12.3347C15.168 12.5491 15.0476 12.8398 15.0476 13.1429C15.0476 13.446 15.168 13.7367 15.3824 13.951C15.5967 14.1653 15.8874 14.2857 16.1905 14.2857C16.4936 14.2857 16.7843 14.1653 16.9986 13.951C17.2129 13.7367 17.3333 13.446 17.3333 13.1429C17.3333 12.8398 17.2129 12.5491 16.9986 12.3347C16.7843 12.1204 16.4936 12 16.1905 12Z" fill="currentColor"/>
</svg>
