<svg width="24" height="24" viewBox="0 0 24 24" fill="none" xmlns="http://www.w3.org/2000/svg">
<path fill-rule="evenodd" clip-rule="evenodd" d="M13.69 2.25C13.907 2.25 14.096 2.25 14.274 2.278C14.6207 2.33354 14.9496 2.46946 15.2344 2.67488C15.5192 2.8803 15.7519 3.14952 15.914 3.461C15.9948 3.61485 16.0524 3.78626 16.1181 3.98147L16.126 4.005L16.237 4.34C16.3136 4.61216 16.4802 4.85032 16.7096 5.0156C16.9389 5.18088 17.2176 5.26351 17.5 5.25H20.5C20.6989 5.25 20.8897 5.32902 21.0303 5.46967C21.171 5.61032 21.25 5.80109 21.25 6C21.25 6.19891 21.171 6.38968 21.0303 6.53033C20.8897 6.67098 20.6989 6.75 20.5 6.75H3.5C3.30109 6.75 3.11032 6.67098 2.96967 6.53033C2.82902 6.38968 2.75 6.19891 2.75 6C2.75 5.80109 2.82902 5.61032 2.96967 5.46967C3.11032 5.32902 3.30109 5.25 3.5 5.25H6.59C6.8571 5.24359 7.11513 5.15177 7.32623 4.988C7.53733 4.82423 7.6904 4.59713 7.763 4.34L7.875 4.005L7.8775 3.99747C7.94445 3.79561 8.00302 3.61904 8.085 3.461C8.24719 3.1494 8.48009 2.8801 8.76505 2.67468C9.05001 2.46925 9.37911 2.3334 9.726 2.278C9.904 2.25 10.093 2.25 10.309 2.25H13.69ZM9.008 5.25C9.07822 5.11249 9.13675 4.96932 9.183 4.822L9.283 4.522C9.374 4.249 9.395 4.194 9.416 4.154C9.46999 4.05001 9.54758 3.96011 9.64257 3.89152C9.73757 3.82292 9.84731 3.77754 9.963 3.759C10.0934 3.74799 10.2243 3.74498 10.355 3.75H13.645C13.933 3.75 13.993 3.752 14.037 3.76C14.1526 3.77843 14.2623 3.82366 14.3573 3.89208C14.4522 3.9605 14.5299 4.05019 14.584 4.154C14.605 4.194 14.626 4.249 14.717 4.523L14.817 4.823L14.856 4.935C14.895 5.045 14.941 5.149 14.992 5.25H9.008Z" fill="currentColor"/>
<path d="M5.91468 8.45C5.90142 8.25149 5.80985 8.06637 5.6601 7.93538C5.51035 7.80438 5.3147 7.73824 5.11618 7.7515C4.91767 7.76476 4.73255 7.85634 4.60156 8.00609C4.47057 8.15584 4.40442 8.35149 4.41769 8.55L4.88168 15.502C4.96668 16.784 5.03569 17.82 5.19768 18.634C5.36668 19.479 5.65268 20.185 6.24468 20.738C6.83568 21.292 7.55968 21.531 8.41469 21.642C9.23668 21.75 10.2747 21.75 11.5607 21.75H12.4397C13.7247 21.75 14.7637 21.75 15.5857 21.642C16.4397 21.531 17.1637 21.292 17.7557 20.738C18.3467 20.185 18.6327 19.478 18.8017 18.634C18.9614 17.8326 19.0297 16.8134 19.114 15.5565L19.5817 8.55C19.5949 8.35149 19.5288 8.15584 19.3978 8.00609C19.2668 7.85634 19.0817 7.76476 18.8832 7.7515C18.6847 7.73824 18.489 7.80438 18.3393 7.93538C18.1895 8.06637 18.0979 8.25149 18.0847 8.45L17.6247 15.35C17.5347 16.697 17.4707 17.635 17.3307 18.34C17.1937 19.025 17.0037 19.387 16.7307 19.643C16.4567 19.899 16.0827 20.065 15.3907 20.155C14.6777 20.248 13.7377 20.25 12.3867 20.25H11.6127C10.2627 20.25 9.32269 20.248 8.60868 20.155C7.91669 20.065 7.54269 19.899 7.26869 19.643C6.99569 19.387 6.80569 19.025 6.66868 18.341C6.52869 17.635 6.46468 16.697 6.37468 15.349L5.91468 8.45Z" fill="currentColor"/>
<path d="M9.97415 10.4195C9.82019 10.2937 9.62258 10.2342 9.42474 10.254C9.22692 10.274 9.04511 10.3716 8.91928 10.5256C8.79346 10.6795 8.73391 10.8772 8.75374 11.075L9.25374 16.075C9.27822 16.2691 9.37757 16.4459 9.5306 16.5678C9.68363 16.6897 9.87822 16.747 10.0729 16.7274C10.2675 16.7078 10.4468 16.613 10.5725 16.4631C10.6982 16.3132 10.7604 16.1201 10.7457 15.925L10.2457 10.925C10.2258 10.7272 10.1281 10.5454 9.97415 10.4195Z" fill="currentColor"/>
<path d="M15.0798 10.5252C14.954 10.3715 14.7724 10.274 14.5747 10.254C14.3771 10.2345 14.1787 10.2941 14.025 10.4199C13.8712 10.5457 13.7737 10.7274 13.7537 10.925L13.2537 15.925C13.2397 16.1198 13.3023 16.3124 13.4281 16.4618C13.5538 16.6112 13.7329 16.7057 13.9273 16.7251C14.1216 16.7445 14.3159 16.6873 14.4687 16.5657C14.6216 16.4441 14.7209 16.2677 14.7457 16.074L15.2457 11.074C15.2653 10.8763 15.2056 10.679 15.0798 10.5252Z" fill="currentColor"/>
</svg>
