<svg width="24" height="24" viewBox="0 0 24 24" fill="none" xmlns="http://www.w3.org/2000/svg">
<path d="M22.6727 16.876C22.6727 16.793 22.5897 16.793 22.5897 16.71C22.2576 16.0458 21.5104 15.2155 20.5141 14.3023C20.016 13.8872 19.7669 13.5551 19.6009 13.389C19.3518 13.0569 19.3518 12.8079 19.4348 12.4758C19.5179 12.2267 19.8499 11.8116 20.4311 11.0644C20.7632 10.6493 20.9292 10.4002 21.1783 10.1511C22.4236 8.49069 23.0048 7.41138 22.8387 6.91324L22.7557 6.83023C22.6727 6.74721 22.5897 6.66419 22.4236 6.66419C22.2576 6.58116 22.0085 6.58116 21.7595 6.66419H18.6046C18.5216 6.66419 18.5216 6.66419 18.3555 6.66419C18.2725 6.66419 18.1895 6.66419 18.1895 6.66419H18.1065H18.0234L17.9404 6.7472C17.8574 6.83022 17.8574 6.83022 17.8574 6.91324C17.5253 7.8265 17.1102 8.5737 16.6951 9.40393C16.446 9.81905 16.1969 10.2342 15.9479 10.5663C15.6988 10.8984 15.5327 11.1474 15.3667 11.3135C15.2006 11.4795 15.0346 11.5625 14.9516 11.7286C14.8685 11.8116 14.7025 11.8946 14.7025 11.8116C14.6195 11.8116 14.5365 11.8116 14.5365 11.7286C14.4534 11.6456 14.3704 11.5625 14.2874 11.4795C14.2044 11.3965 14.2044 11.2304 14.1213 11.0644C14.1213 10.8983 14.1213 10.7323 14.1213 10.6493C14.1213 10.5663 14.1213 10.3172 14.1213 10.1511C14.1213 9.90208 14.1213 9.73603 14.1213 9.653C14.1213 9.40394 14.1213 9.07185 14.1213 8.73976C14.1213 8.40767 14.1213 8.15859 14.1213 7.99255C14.1213 7.8265 14.1213 7.57743 14.1213 7.41139C14.1213 7.16232 14.1213 6.99627 14.1213 6.91324C14.1213 6.83022 14.0383 6.66418 14.0383 6.58116C13.9553 6.49814 13.8723 6.41511 13.7893 6.33209C13.7062 6.24906 13.5402 6.24907 13.4572 6.16604C13.0421 6.08302 12.5439 6 11.9628 6C10.6344 6 9.72114 6.08303 9.38905 6.24907C9.223 6.33209 9.05696 6.41511 8.97393 6.58116C8.80789 6.7472 8.80788 6.83023 8.89091 6.83023C9.30602 6.91325 9.63812 7.07929 9.80416 7.32836L9.88719 7.49442C9.97021 7.57744 9.9702 7.74348 10.0532 7.99255C10.1362 8.24161 10.1362 8.49068 10.1362 8.82278C10.1362 9.32091 10.1362 9.81906 10.1362 10.1511C10.1362 10.5663 10.0532 10.8153 10.0532 11.0644C10.0532 11.3135 9.97021 11.4795 9.88719 11.5625C9.80417 11.7286 9.80416 11.8116 9.72113 11.8116C9.72113 11.8116 9.72113 11.8946 9.63811 11.8946C9.55508 11.8946 9.47207 11.9777 9.30602 11.9777C9.223 11.9777 9.05696 11.8946 8.97393 11.8116C8.80789 11.7286 8.64184 11.5625 8.55882 11.3965C8.39277 11.2304 8.22672 10.9814 8.06068 10.6493C7.89463 10.3172 7.64555 9.9851 7.47951 9.48696L7.31348 9.15487C7.23045 8.98883 7.06441 8.65673 6.89836 8.24162C6.73231 7.8265 6.56626 7.49442 6.40022 7.0793C6.31719 6.91325 6.23418 6.83022 6.15116 6.7472H6.06813C6.06813 6.7472 5.9851 6.66419 5.90208 6.66419C5.81905 6.66419 5.73604 6.58116 5.65302 6.58116H2.66419C2.33209 6.58116 2.16605 6.66418 2.08303 6.7472L2 6.83023C2 6.83023 2 6.91325 2 6.99627C2 7.0793 2.00001 7.16231 2.08303 7.32836C2.49814 8.32464 2.99628 9.32092 3.49442 10.3172C3.99255 11.2304 4.4907 12.0607 4.82279 12.6418C5.2379 13.223 5.56999 13.8042 5.9851 14.3023C6.40022 14.8004 6.64928 15.1325 6.7323 15.2986C6.89835 15.4646 6.98137 15.5476 7.06439 15.6307L7.31348 15.8797C7.47952 16.0458 7.72858 16.2948 8.06068 16.5439C8.39277 16.793 8.80788 17.042 9.22299 17.2911C9.63811 17.5402 10.1363 17.7062 10.6344 17.8723C11.2156 18.0383 11.7137 18.1214 12.2118 18.0383H13.4572C13.7062 18.0383 13.8723 17.9553 14.0383 17.7893L14.1213 17.7062C14.1213 17.6232 14.2044 17.6232 14.2044 17.5402C14.2044 17.4572 14.2044 17.3741 14.2044 17.2081C14.2044 16.876 14.2044 16.6269 14.2874 16.3779C14.3704 16.1288 14.3704 15.9628 14.4535 15.7967C14.5365 15.6307 14.6195 15.5476 14.7025 15.4646C14.7855 15.3816 14.8686 15.2986 14.8686 15.2986H14.9516C15.1176 15.2155 15.3667 15.2986 15.5327 15.4646C15.7818 15.6307 16.0309 15.8797 16.1969 16.1288C16.363 16.3779 16.612 16.6269 16.9441 16.959C17.2762 17.2911 17.5253 17.5402 17.6913 17.6232L17.9404 17.7893C18.1064 17.8723 18.2725 17.9553 18.5216 18.0383C18.7706 18.1214 18.9367 18.1213 19.1027 18.1213L21.9255 18.0383C22.1746 18.0383 22.4236 17.9553 22.5897 17.8723C22.7557 17.7893 22.8387 17.7062 22.8387 17.5402C22.8387 17.4572 22.8387 17.2911 22.8387 17.2081C22.6727 17.0421 22.6727 16.959 22.6727 16.876Z" fill="currentColor"/>
</svg>
