<svg width="2630" height="49" viewBox="0 0 2630 49" fill="none" xmlns="http://www.w3.org/2000/svg">
<path d="M47.6691 1L1.00002 47.669" stroke="currentColor"/>
<path d="M62.3381 1L15.669 47.669" stroke="currentColor"/>
<path d="M77.0071 1L30.3381 47.669" stroke="currentColor"/>
<path d="M91.6762 1L45.0072 47.669" stroke="currentColor"/>
<path d="M106.345 1L59.6762 47.669" stroke="currentColor"/>
<path d="M121.014 1L74.3452 47.669" stroke="currentColor"/>
<path d="M135.683 1L89.0143 47.669" stroke="currentColor"/>
<path d="M150.352 1L103.683 47.669" stroke="currentColor"/>
<path d="M165.021 1L118.352 47.669" stroke="currentColor"/>
<path d="M179.69 1L133.021 47.669" stroke="currentColor"/>
<path d="M194.36 1L147.691 47.669" stroke="currentColor"/>
<path d="M209.029 1L162.36 47.669" stroke="currentColor"/>
<path d="M223.698 1L177.029 47.669" stroke="currentColor"/>
<path d="M238.367 1L191.698 47.669" stroke="currentColor"/>
<path d="M253.036 1L206.367 47.669" stroke="currentColor"/>
<path d="M267.705 1L221.036 47.669" stroke="currentColor"/>
<path d="M282.374 1L235.705 47.669" stroke="currentColor"/>
<path d="M297.043 1L250.374 47.669" stroke="currentColor"/>
<path d="M311.712 1L265.043 47.669" stroke="currentColor"/>
<path d="M326.381 1L279.712 47.669" stroke="currentColor"/>
<path d="M341.05 1L294.381 47.669" stroke="currentColor"/>
<path d="M355.719 1L309.05 47.669" stroke="currentColor"/>
<path d="M370.388 1L323.719 47.669" stroke="currentColor"/>
<path d="M385.057 1L338.388 47.669" stroke="currentColor"/>
<path d="M399.726 1L353.057 47.669" stroke="currentColor"/>
<path d="M414.395 1L367.726 47.669" stroke="currentColor"/>
<path d="M429.064 1L382.395 47.669" stroke="currentColor"/>
<path d="M443.733 1L397.064 47.669" stroke="currentColor"/>
<path d="M458.402 1L411.733 47.669" stroke="currentColor"/>
<path d="M473.071 1L426.402 47.669" stroke="currentColor"/>
<path d="M487.74 1L441.071 47.669" stroke="currentColor"/>
<path d="M502.409 1L455.74 47.669" stroke="currentColor"/>
<path d="M517.078 1L470.409 47.669" stroke="currentColor"/>
<path d="M531.747 1L485.078 47.669" stroke="currentColor"/>
<path d="M546.417 1L499.747 47.669" stroke="currentColor"/>
<path d="M561.086 1L514.417 47.669" stroke="currentColor"/>
<path d="M575.755 1L529.086 47.669" stroke="currentColor"/>
<path d="M590.424 1L543.755 47.669" stroke="currentColor"/>
<path d="M605.093 1L558.424 47.669" stroke="currentColor"/>
<path d="M619.762 1L573.093 47.669" stroke="currentColor"/>
<path d="M634.431 1L587.762 47.669" stroke="currentColor"/>
<path d="M649.1 1L602.431 47.669" stroke="currentColor"/>
<path d="M663.769 1L617.1 47.669" stroke="currentColor"/>
<path d="M678.438 1L631.769 47.669" stroke="currentColor"/>
<path d="M693.107 1L646.438 47.669" stroke="currentColor"/>
<path d="M707.776 1L661.107 47.669" stroke="currentColor"/>
<path d="M722.445 1L675.776 47.669" stroke="currentColor"/>
<path d="M737.115 1L690.445 47.669" stroke="currentColor"/>
<path d="M751.783 1L705.114 47.669" stroke="currentColor"/>
<path d="M766.453 1L719.783 47.669" stroke="currentColor"/>
<path d="M781.122 1L734.453 47.669" stroke="currentColor"/>
<path d="M795.791 1L749.122 47.669" stroke="currentColor"/>
<path d="M810.46 1L763.791 47.669" stroke="currentColor"/>
<path d="M825.129 1L778.46 47.669" stroke="currentColor"/>
<path d="M839.798 1L793.129 47.669" stroke="currentColor"/>
<path d="M854.467 1L807.798 47.669" stroke="currentColor"/>
<path d="M869.136 1L822.467 47.669" stroke="currentColor"/>
<path d="M883.805 1L837.136 47.669" stroke="currentColor"/>
<path d="M898.474 1L851.805 47.669" stroke="currentColor"/>
<path d="M913.143 1L866.474 47.669" stroke="currentColor"/>
<path d="M927.812 1L881.143 47.669" stroke="currentColor"/>
<path d="M942.481 1L895.812 47.669" stroke="currentColor"/>
<path d="M957.15 1L910.481 47.669" stroke="currentColor"/>
<path d="M971.819 1L925.15 47.669" stroke="currentColor"/>
<path d="M986.489 1L939.819 47.669" stroke="currentColor"/>
<path d="M1001.16 1L954.489 47.669" stroke="currentColor"/>
<path d="M1015.83 1L969.158 47.669" stroke="currentColor"/>
<path d="M1030.5 1L983.827 47.669" stroke="currentColor"/>
<path d="M1045.16 1L998.496 47.669" stroke="currentColor"/>
<path d="M1059.83 1L1013.16 47.669" stroke="currentColor"/>
<path d="M1074.5 1L1027.83 47.669" stroke="currentColor"/>
<path d="M1089.17 1L1042.5 47.669" stroke="currentColor"/>
<path d="M1103.84 1L1057.17 47.669" stroke="currentColor"/>
<path d="M1118.51 1L1071.84 47.669" stroke="currentColor"/>
<path d="M1133.18 1L1086.51 47.669" stroke="currentColor"/>
<path d="M1147.85 1L1101.18 47.669" stroke="currentColor"/>
<path d="M1162.52 1L1115.85 47.669" stroke="currentColor"/>
<path d="M1177.19 1L1130.52 47.669" stroke="currentColor"/>
<path d="M1191.86 1L1145.19 47.669" stroke="currentColor"/>
<path d="M1206.52 1L1159.86 47.669" stroke="currentColor"/>
<path d="M1221.19 1L1174.52 47.669" stroke="currentColor"/>
<path d="M1235.86 1L1189.19 47.669" stroke="currentColor"/>
<path d="M1250.53 1L1203.86 47.669" stroke="currentColor"/>
<path d="M1265.2 1L1218.53 47.669" stroke="currentColor"/>
<path d="M1279.87 1L1233.2 47.669" stroke="currentColor"/>
<path d="M1294.54 1L1247.87 47.669" stroke="currentColor"/>
<path d="M1309.21 1L1262.54 47.669" stroke="currentColor"/>
<path d="M1323.88 1L1277.21 47.669" stroke="currentColor"/>
<path d="M1338.55 1L1291.88 47.669" stroke="currentColor"/>
<path d="M1353.22 1L1306.55 47.669" stroke="currentColor"/>
<path d="M1367.88 1L1321.22 47.669" stroke="currentColor"/>
<path d="M1382.55 1L1335.88 47.669" stroke="currentColor"/>
<path d="M1397.22 1L1350.55 47.669" stroke="currentColor"/>
<path d="M1411.89 1L1365.22 47.669" stroke="currentColor"/>
<path d="M1426.56 1L1379.89 47.669" stroke="currentColor"/>
<path d="M1441.23 1L1394.56 47.669" stroke="currentColor"/>
<path d="M1455.9 1L1409.23 47.669" stroke="currentColor"/>
<path d="M1470.57 1L1423.9 47.669" stroke="currentColor"/>
<path d="M1485.24 1L1438.57 47.669" stroke="currentColor"/>
<path d="M1499.91 1L1453.24 47.669" stroke="currentColor"/>
<path d="M1514.57 1L1467.91 47.669" stroke="currentColor"/>
<path d="M1529.24 1L1482.57 47.669" stroke="currentColor"/>
<path d="M1543.91 1L1497.24 47.669" stroke="currentColor"/>
<path d="M1558.58 1L1511.91 47.669" stroke="currentColor"/>
<path d="M1573.25 1L1526.58 47.669" stroke="currentColor"/>
<path d="M1587.92 1L1541.25 47.669" stroke="currentColor"/>
<path d="M1602.59 1L1555.92 47.669" stroke="currentColor"/>
<path d="M1617.26 1L1570.59 47.669" stroke="currentColor"/>
<path d="M1631.93 1L1585.26 47.669" stroke="currentColor"/>
<path d="M1646.6 1L1599.93 47.669" stroke="currentColor"/>
<path d="M1661.27 1L1614.6 47.669" stroke="currentColor"/>
<path d="M1675.93 1L1629.27 47.669" stroke="currentColor"/>
<path d="M1690.6 1L1643.93 47.669" stroke="currentColor"/>
<path d="M1705.27 1L1658.6 47.669" stroke="currentColor"/>
<path d="M1719.94 1L1673.27 47.669" stroke="currentColor"/>
<path d="M1734.61 1L1687.94 47.669" stroke="currentColor"/>
<path d="M1749.28 1L1702.61 47.669" stroke="currentColor"/>
<path d="M1763.95 1L1717.28 47.669" stroke="currentColor"/>
<path d="M1778.62 1L1731.95 47.669" stroke="currentColor"/>
<path d="M1793.29 1L1746.62 47.669" stroke="currentColor"/>
<path d="M1807.96 1L1761.29 47.669" stroke="currentColor"/>
<path d="M1822.63 1L1775.96 47.669" stroke="currentColor"/>
<path d="M1837.29 1L1790.63 47.669" stroke="currentColor"/>
<path d="M1851.96 1L1805.29 47.669" stroke="currentColor"/>
<path d="M1866.63 1L1819.96 47.669" stroke="currentColor"/>
<path d="M1881.3 1L1834.63 47.669" stroke="currentColor"/>
<path d="M1895.97 1L1849.3 47.669" stroke="currentColor"/>
<path d="M1910.64 1L1863.97 47.669" stroke="currentColor"/>
<path d="M1925.31 1L1878.64 47.669" stroke="currentColor"/>
<path d="M1939.98 1L1893.31 47.669" stroke="currentColor"/>
<path d="M1954.65 1L1907.98 47.669" stroke="currentColor"/>
<path d="M1969.32 1L1922.65 47.669" stroke="currentColor"/>
<path d="M1983.99 1L1937.32 47.669" stroke="currentColor"/>
<path d="M1998.65 1L1951.99 47.669" stroke="currentColor"/>
<path d="M2013.32 1L1966.65 47.669" stroke="currentColor"/>
<path d="M2027.99 1L1981.32 47.669" stroke="currentColor"/>
<path d="M2042.66 1L1995.99 47.669" stroke="currentColor"/>
<path d="M2057.33 1L2010.66 47.669" stroke="currentColor"/>
<path d="M2072 1L2025.33 47.669" stroke="currentColor"/>
<path d="M2086.67 1L2040 47.669" stroke="currentColor"/>
<path d="M2101.34 1L2054.67 47.669" stroke="currentColor"/>
<path d="M2116.01 1L2069.34 47.669" stroke="currentColor"/>
<path d="M2130.68 1L2084.01 47.669" stroke="currentColor"/>
<path d="M2145.34 1L2098.68 47.669" stroke="currentColor"/>
<path d="M2160.01 1L2113.34 47.669" stroke="currentColor"/>
<path d="M2174.68 1L2128.01 47.669" stroke="currentColor"/>
<path d="M2189.35 1L2142.68 47.669" stroke="currentColor"/>
<path d="M2204.02 1L2157.35 47.669" stroke="currentColor"/>
<path d="M2218.69 1L2172.02 47.669" stroke="currentColor"/>
<path d="M2233.36 1L2186.69 47.669" stroke="currentColor"/>
<path d="M2248.03 1L2201.36 47.669" stroke="currentColor"/>
<path d="M2262.7 1L2216.03 47.669" stroke="currentColor"/>
<path d="M2277.36 1L2230.7 47.669" stroke="currentColor"/>
<path d="M2292.03 1L2245.36 47.669" stroke="currentColor"/>
<path d="M2306.7 1L2260.03 47.669" stroke="currentColor"/>
<path d="M2321.37 1L2274.7 47.669" stroke="currentColor"/>
<path d="M2336.04 1L2289.37 47.669" stroke="currentColor"/>
<path d="M2350.71 1L2304.04 47.669" stroke="currentColor"/>
<path d="M2365.38 1L2318.71 47.669" stroke="currentColor"/>
<path d="M2380.05 1L2333.38 47.669" stroke="currentColor"/>
<path d="M2394.72 1L2348.05 47.669" stroke="currentColor"/>
<path d="M2409.39 1L2362.72 47.669" stroke="currentColor"/>
<path d="M2424.05 1L2377.39 47.669" stroke="currentColor"/>
<path d="M2438.72 1L2392.05 47.669" stroke="currentColor"/>
<path d="M2453.39 1L2406.72 47.669" stroke="currentColor"/>
<path d="M2468.06 1L2421.39 47.669" stroke="currentColor"/>
<path d="M2482.73 1L2436.06 47.669" stroke="currentColor"/>
<path d="M2497.4 1L2450.73 47.669" stroke="currentColor"/>
<path d="M2512.07 1L2465.4 47.669" stroke="currentColor"/>
<path d="M2526.74 1L2480.07 47.669" stroke="currentColor"/>
<path d="M2541.41 1L2494.74 47.669" stroke="currentColor"/>
<path d="M2556.07 1L2509.41 47.669" stroke="currentColor"/>
<path d="M2570.74 1L2524.07 47.669" stroke="currentColor"/>
<path d="M2585.41 1L2538.74 47.669" stroke="currentColor"/>
<path d="M2600.08 1L2553.41 47.669" stroke="currentColor"/>
<path d="M2614.75 1L2568.08 47.669" stroke="currentColor"/>
<path d="M2629.42 1L2582.75 47.669" stroke="currentColor"/>
</svg>
