<svg width="1398" height="49" viewBox="0 0 1398 49" fill="none" xmlns="http://www.w3.org/2000/svg">
  <path d="M47.6691 1L1.00002 47.669" stroke="currentColor"/>
  <path d="M62.3381 1L15.669 47.669" stroke="currentColor"/>
  <path d="M77.0071 1L30.3381 47.669" stroke="currentColor"/>
  <path d="M91.6762 1L45.0072 47.669" stroke="currentColor"/>
  <path d="M106.345 1L59.6762 47.669" stroke="currentColor"/>
  <path d="M121.014 1L74.3452 47.669" stroke="currentColor"/>
  <path d="M135.683 1L89.0143 47.669" stroke="currentColor"/>
  <path d="M150.352 1L103.683 47.669" stroke="currentColor"/>
  <path d="M165.021 1L118.352 47.669" stroke="currentColor"/>
  <path d="M179.69 1L133.021 47.669" stroke="currentColor"/>
  <path d="M194.36 1L147.691 47.669" stroke="currentColor"/>
  <path d="M209.029 1L162.36 47.669" stroke="currentColor"/>
  <path d="M223.698 1L177.029 47.669" stroke="currentColor"/>
  <path d="M238.367 1L191.698 47.669" stroke="currentColor"/>
  <path d="M253.036 1L206.367 47.669" stroke="currentColor"/>
  <path d="M267.705 1L221.036 47.669" stroke="currentColor"/>
  <path d="M282.374 1L235.705 47.669" stroke="currentColor"/>
  <path d="M297.043 1L250.374 47.669" stroke="currentColor"/>
  <path d="M311.712 1L265.043 47.669" stroke="currentColor"/>
  <path d="M326.381 1L279.712 47.669" stroke="currentColor"/>
  <path d="M341.05 1L294.381 47.669" stroke="currentColor"/>
  <path d="M355.719 1L309.05 47.669" stroke="currentColor"/>
  <path d="M370.388 1L323.719 47.669" stroke="currentColor"/>
  <path d="M385.057 1L338.388 47.669" stroke="currentColor"/>
  <path d="M399.726 1L353.057 47.669" stroke="currentColor"/>
  <path d="M414.395 1L367.726 47.669" stroke="currentColor"/>
  <path d="M429.064 1L382.395 47.669" stroke="currentColor"/>
  <path d="M443.733 1L397.064 47.669" stroke="currentColor"/>
  <path d="M458.402 1L411.733 47.669" stroke="currentColor"/>
  <path d="M473.071 1L426.402 47.669" stroke="currentColor"/>
  <path d="M487.74 1L441.071 47.669" stroke="currentColor"/>
  <path d="M502.409 1L455.74 47.669" stroke="currentColor"/>
  <path d="M517.078 1L470.409 47.669" stroke="currentColor"/>
  <path d="M531.747 1L485.078 47.669" stroke="currentColor"/>
  <path d="M546.417 1L499.747 47.669" stroke="currentColor"/>
  <path d="M561.086 1L514.417 47.669" stroke="currentColor"/>
  <path d="M575.755 1L529.086 47.669" stroke="currentColor"/>
  <path d="M590.424 1L543.755 47.669" stroke="currentColor"/>
  <path d="M605.093 1L558.424 47.669" stroke="currentColor"/>
  <path d="M619.762 1L573.093 47.669" stroke="currentColor"/>
  <path d="M634.431 1L587.762 47.669" stroke="currentColor"/>
  <path d="M649.1 1L602.431 47.669" stroke="currentColor"/>
  <path d="M663.769 1L617.1 47.669" stroke="currentColor"/>
  <path d="M678.438 1L631.769 47.669" stroke="currentColor"/>
  <path d="M693.107 1L646.438 47.669" stroke="currentColor"/>
  <path d="M707.776 1L661.107 47.669" stroke="currentColor"/>
  <path d="M722.445 1L675.776 47.669" stroke="currentColor"/>
  <path d="M737.115 1L690.445 47.669" stroke="currentColor"/>
  <path d="M751.783 1L705.114 47.669" stroke="currentColor"/>
  <path d="M766.453 1L719.784 47.669" stroke="currentColor"/>
  <path d="M781.122 1L734.453 47.669" stroke="currentColor"/>
  <path d="M795.791 1L749.122 47.669" stroke="currentColor"/>
  <path d="M810.46 1L763.791 47.669" stroke="currentColor"/>
  <path d="M825.129 1L778.46 47.669" stroke="currentColor"/>
  <path d="M839.798 1L793.129 47.669" stroke="currentColor"/>
  <path d="M854.467 1L807.798 47.669" stroke="currentColor"/>
  <path d="M869.136 1L822.467 47.669" stroke="currentColor"/>
  <path d="M883.805 1L837.136 47.669" stroke="currentColor"/>
  <path d="M898.474 1L851.805 47.669" stroke="currentColor"/>
  <path d="M913.143 1L866.474 47.669" stroke="currentColor"/>
  <path d="M927.812 1L881.143 47.669" stroke="currentColor"/>
  <path d="M942.481 1L895.812 47.669" stroke="currentColor"/>
  <path d="M957.15 1L910.481 47.669" stroke="currentColor"/>
  <path d="M971.82 1L925.151 47.669" stroke="currentColor"/>
  <path d="M986.489 1L939.819 47.669" stroke="currentColor"/>
  <path d="M1001.16 1L954.489 47.669" stroke="currentColor"/>
  <path d="M1015.83 1L969.158 47.669" stroke="currentColor"/>
  <path d="M1030.5 1L983.827 47.669" stroke="currentColor"/>
  <path d="M1045.16 1L998.496 47.669" stroke="currentColor"/>
  <path d="M1059.83 1L1013.16 47.669" stroke="currentColor"/>
  <path d="M1074.5 1L1027.83 47.669" stroke="currentColor"/>
  <path d="M1089.17 1L1042.5 47.669" stroke="currentColor"/>
  <path d="M1103.84 1L1057.17 47.669" stroke="currentColor"/>
  <path d="M1118.51 1L1071.84 47.669" stroke="currentColor"/>
  <path d="M1133.18 1L1086.51 47.669" stroke="currentColor"/>
  <path d="M1147.85 1L1101.18 47.669" stroke="currentColor"/>
  <path d="M1162.52 1L1115.85 47.669" stroke="currentColor"/>
  <path d="M1177.19 1L1130.52 47.669" stroke="currentColor"/>
  <path d="M1191.86 1L1145.19 47.669" stroke="currentColor"/>
  <path d="M1206.52 1L1159.86 47.669" stroke="currentColor"/>
  <path d="M1221.19 1L1174.52 47.669" stroke="currentColor"/>
  <path d="M1235.86 1L1189.19 47.669" stroke="currentColor"/>
  <path d="M1250.53 1L1203.86 47.669" stroke="currentColor"/>
  <path d="M1265.2 1L1218.53 47.669" stroke="currentColor"/>
  <path d="M1279.87 1L1233.2 47.669" stroke="currentColor"/>
  <path d="M1294.54 1L1247.87 47.669" stroke="currentColor"/>
  <path d="M1309.21 1L1262.54 47.669" stroke="currentColor"/>
  <path d="M1323.88 1L1277.21 47.669" stroke="currentColor"/>
  <path d="M1338.55 1L1291.88 47.669" stroke="currentColor"/>
  <path d="M1353.22 1L1306.55 47.669" stroke="currentColor"/>
  <path d="M1367.88 1L1321.22 47.669" stroke="currentColor"/>
  <path d="M1382.55 1L1335.88 47.669" stroke="currentColor"/>
  <path d="M1397.22 1L1350.55 47.669" stroke="currentColor"/>
</svg>
