<svg width="168" height="48" viewBox="0 0 168 48" fill="none" xmlns="http://www.w3.org/2000/svg">
  <path d="M15.7653 44.704C13.9307 44.704 12.1387 44.4053 10.3893 43.808C8.64 43.2533 6.99733 42.3147 5.46133 40.992C5.16267 40.736 4.864 40.3947 4.56533 39.968C4.30933 39.5413 3.94667 39.1147 3.47733 38.688C3.008 38.176 2.496 37.6853 1.94133 37.216C1.38667 36.7467 0.917333 36.256 0.533333 35.744C0.362667 35.4453 0.213333 34.9547 0.0853332 34.272C0 33.5467 -0.0213333 32.9067 0.0213333 32.352C0.234667 30.3467 0.938667 28.2773 2.13333 26.144C3.37067 23.968 4.94933 21.856 6.86933 19.808C8.832 17.7173 11.008 15.7547 13.3973 13.92C15.7867 12.0427 18.2613 10.3787 20.8213 8.92799C23.3813 7.47732 25.8773 6.32532 28.3093 5.47199C29.6747 5.00266 31.0827 4.63999 32.5333 4.38399C33.984 4.12799 35.3493 3.99999 36.6293 3.99999C38.2507 3.99999 39.616 4.23465 40.7253 4.70399C41.8347 5.13066 42.4107 5.83466 42.4533 6.81599C43.264 7.88266 43.6693 9.14132 43.6693 10.592C43.6693 12.4267 43.072 14.1333 41.8773 15.712C40.6827 17.2053 39.5093 18.528 38.3573 19.68C37.2053 20.832 35.904 21.92 34.4533 22.944C33.0027 23.9253 31.2107 24.9707 29.0773 26.08C28.864 26.2507 28.6293 26.336 28.3733 26.336C28.0747 26.336 27.9253 26.208 27.9253 25.952C27.9253 25.824 28.0107 25.6747 28.1813 25.504C30.8267 24.224 33.0027 22.7733 34.7093 21.152C36.416 19.5307 37.7173 17.9307 38.6133 16.352C39.0827 15.4987 39.552 14.56 40.0213 13.536C40.4907 12.512 40.7253 11.5947 40.7253 10.784C40.7253 10.0587 40.448 9.46132 39.8933 8.99199C39.3813 8.52266 38.4427 8.28799 37.0773 8.28799C34.4747 8.28799 31.744 8.79999 28.8853 9.82399C26.0267 10.848 23.2107 12.256 20.4373 14.048C17.7067 15.84 15.2107 17.9093 12.9493 20.256C10.688 22.56 8.832 25.0133 7.38133 27.616C5.93067 30.2187 5.07733 32.8213 4.82133 35.424C4.77867 35.5947 4.75733 35.7653 4.75733 35.936C4.75733 36.1067 4.75733 36.2773 4.75733 36.448C4.75733 38.6667 5.48267 40.224 6.93333 41.12C8.42667 42.016 10.2827 42.464 12.5013 42.464C14.464 42.464 16.5973 42.208 18.9013 41.696C21.2053 41.1413 23.4667 40.48 25.6853 39.712C27.9467 38.9013 29.9733 38.0907 31.7653 37.28C33.5573 36.4693 34.9227 35.7653 35.8613 35.168C36.416 34.8267 36.8427 34.592 37.1413 34.464C37.4827 34.2933 37.7387 34.208 37.9093 34.208C38.0373 34.208 38.1013 34.2507 38.1013 34.336C38.1013 34.592 37.7813 35.04 37.1413 35.68C36.2027 36.576 35.0507 37.5147 33.6853 38.496C32.3627 39.4347 31.0187 40.2453 29.6533 40.928C27.5627 41.952 25.3227 42.8267 22.9333 43.552C20.544 44.32 18.1547 44.704 15.7653 44.704Z" fill="#FF5C02"/>
  <path d="M49.3073 47.648C48.0273 47.648 47.174 47.264 46.7473 46.496C46.3633 45.728 46.1713 45.0027 46.1713 44.32C46.1713 43.2533 46.4487 41.9947 47.0033 40.544C47.558 39.0933 48.2193 37.6213 48.9873 36.128C49.7553 34.592 50.4593 33.248 51.0993 32.096C51.398 31.6267 51.59 31.2427 51.6753 30.944C51.8033 30.6453 51.8673 30.4107 51.8673 30.24C51.8673 29.8987 51.6113 29.8987 51.0993 30.24C50.63 30.5813 50.0327 31.1147 49.3073 31.84C48.582 32.5227 47.8567 33.2693 47.1313 34.08C46.406 34.8907 45.8087 35.5947 45.3393 36.192C44.6567 37.088 44.0167 38.0693 43.4193 39.136C42.8647 40.2027 42.31 41.1627 41.7553 42.016C41.542 42.3573 41.1793 42.528 40.6673 42.528C40.198 42.528 39.7073 42.336 39.1953 41.952C38.726 41.5253 38.4913 40.864 38.4913 39.968C38.4913 39.8827 38.7047 39.1573 39.1313 37.792C39.6007 36.4267 40.198 34.7413 40.9233 32.736C41.6913 30.7307 42.5233 28.64 43.4193 26.464C44.358 24.2453 45.2967 22.2613 46.2353 20.512C47.43 18.336 48.7527 16.16 50.2033 13.984C51.6967 11.808 53.19 9.84532 54.6833 8.09599C56.2193 6.30399 57.6273 4.89599 58.9073 3.87199C60.23 2.84799 61.2967 2.37865 62.1073 2.46399C62.918 2.54932 63.494 2.80532 63.8353 3.23199C64.1767 3.65866 64.4753 4.12799 64.7313 4.63999C65.03 5.10932 65.4353 5.47199 65.9473 5.72799C65.734 8.11732 63.878 11.1893 60.3793 14.944C59.3127 16.096 58.054 17.4187 56.6033 18.912C55.1953 20.4053 53.7873 21.92 52.3793 23.456C51.014 24.992 49.8193 26.4 48.7953 27.68C47.7713 28.96 47.0887 29.984 46.7473 30.752C46.6193 31.0933 46.47 31.264 46.2993 31.264C46.1713 31.264 46.1073 31.136 46.1073 30.88C46.1073 30.4107 46.406 29.664 47.0033 28.64C47.6007 27.616 48.3687 26.464 49.3073 25.184C50.246 23.8613 51.206 22.5813 52.1873 21.344C53.2113 20.064 54.1287 18.9333 54.9393 17.952C55.7927 16.928 56.4113 16.2027 56.7953 15.776C57.5633 14.9227 58.31 14.0907 59.0353 13.28C59.7607 12.4693 60.4007 11.7227 60.9553 11.04C62.4487 9.16265 63.1953 7.94666 63.1953 7.39199C63.1953 7.05066 62.854 7.09332 62.1713 7.51999C61.4887 7.90399 60.5073 8.77866 59.2273 10.144C58.2887 11.1253 57.222 12.2773 56.0273 13.6C54.8753 14.9227 53.7447 16.288 52.6353 17.696C51.526 19.104 50.5447 20.4053 49.6913 21.6C48.6247 23.2213 47.6007 24.928 46.6193 26.72C45.638 28.4693 44.806 30.1547 44.1233 31.776C43.4407 33.3973 42.9927 34.8053 42.7793 36C42.7793 36.0427 42.758 36.0853 42.7153 36.128C42.7153 36.1707 42.7153 36.2347 42.7153 36.32C42.7153 36.448 42.758 36.512 42.8433 36.512C43.0993 36.512 43.3553 36.3413 43.6113 36C44.678 34.976 45.8087 33.8453 47.0033 32.608C48.198 31.328 49.3927 30.0693 50.5873 28.832C51.782 27.552 52.8913 26.4213 53.9153 25.44C54.2567 25.6533 54.79 25.7813 55.5153 25.824C56.2407 25.8667 56.8167 26.016 57.2433 26.272C57.7553 26.5707 58.0113 26.9973 58.0113 27.552C58.0113 28.192 57.7553 28.9173 57.2433 29.728C56.774 30.5387 56.262 31.3067 55.7073 32.032C55.1527 32.7147 54.726 33.2267 54.4273 33.568C53.9153 34.1653 53.318 34.9547 52.6353 35.936C51.9527 36.9173 51.27 37.984 50.5873 39.136C49.9473 40.2453 49.3927 41.3547 48.9233 42.464C48.4967 43.5307 48.2833 44.4693 48.2833 45.28C48.2833 45.6213 48.326 45.92 48.4113 46.176C48.5393 46.4747 48.71 46.624 48.9233 46.624C49.1367 46.624 49.4567 46.4533 49.8833 46.112C50.2247 45.856 50.566 45.5573 50.9073 45.216C51.2487 44.9173 51.5687 44.6827 51.8673 44.512C51.9953 44.2987 52.1447 44.192 52.3153 44.192C52.5287 44.192 52.5287 44.384 52.3153 44.768C51.974 45.536 51.5687 46.1973 51.0993 46.752C50.6727 47.3493 50.0753 47.648 49.3073 47.648Z" fill="#FF5C02"/>
  <path d="M61.6113 43.488C60.5873 43.488 59.5633 43.1893 58.5393 42.592C57.558 41.952 56.9393 40.8427 56.6833 39.264C56.6407 39.0933 56.6193 38.816 56.6193 38.432C56.6193 37.152 56.9607 35.7653 57.6433 34.272C58.3687 32.736 59.286 31.2853 60.3953 29.92C61.5473 28.5547 62.7633 27.4453 64.0433 26.592C65.3233 25.7387 66.5393 25.312 67.6913 25.312C67.9473 25.6107 68.3527 25.824 68.9073 25.952C69.5047 26.08 70.0593 26.208 70.5713 26.336C71.1687 26.5067 71.5953 26.784 71.8513 27.168C72.15 27.552 72.2993 27.9787 72.2993 28.448C72.2993 29.0027 72.1073 29.6213 71.7233 30.304C71.3393 30.944 70.8487 31.52 70.2513 32.032C69.27 32.8 68.1393 33.568 66.8593 34.336C65.5793 35.0613 64.406 35.7867 63.3393 36.512C62.3153 37.1947 61.654 37.8773 61.3553 38.56C61.27 38.7733 61.142 38.88 60.9713 38.88C60.6727 38.88 60.5873 38.7093 60.7153 38.368C61.142 37.088 61.8887 36 62.9553 35.104C64.022 34.208 65.1313 33.376 66.2833 32.608C67.478 31.7973 68.438 30.944 69.1633 30.048C69.718 29.4507 69.9953 28.896 69.9953 28.384C69.9953 27.8293 69.6967 27.552 69.0993 27.552C68.5873 27.552 68.0327 27.7653 67.4353 28.192C65.7287 29.344 64.1287 30.88 62.6353 32.8C61.142 34.6773 60.1393 36.6187 59.6273 38.624C59.4993 39.136 59.4353 39.6053 59.4353 40.032C59.4353 40.8427 59.6487 41.4187 60.0753 41.76C60.502 42.0587 61.014 42.208 61.6113 42.208C62.1233 42.208 62.6567 42.1227 63.2113 41.952C63.766 41.7813 64.2567 41.568 64.6833 41.312C65.3233 40.928 65.9633 40.4373 66.6033 39.84C67.2433 39.2 67.7767 38.624 68.2033 38.112C69.1847 36.8747 69.8673 36.256 70.2513 36.256C70.4647 36.256 70.422 36.5547 70.1233 37.152C69.8673 37.7493 69.3127 38.5813 68.4593 39.648C67.6487 40.672 66.6673 41.568 65.5153 42.336C64.406 43.104 63.1047 43.488 61.6113 43.488Z" fill="#FF5C02"/>
  <path d="M75.5623 43.744C74.0263 43.744 72.917 43.296 72.2343 42.4C71.5943 41.504 71.2743 40.3093 71.2743 38.816C71.2743 36.9387 71.6797 34.7413 72.4903 32.224C73.3437 29.7067 74.4317 27.0613 75.7543 24.288C77.1197 21.5147 78.613 18.8267 80.2343 16.224C81.8983 13.5787 83.5623 11.1893 85.2263 9.05599C86.8903 6.92265 88.4263 5.25865 89.8343 4.06399C91.2423 2.82666 92.3943 2.25065 93.2903 2.33599C94.0583 2.42132 94.613 2.67732 94.9543 3.10399C95.3383 3.48799 95.6797 3.91466 95.9783 4.38399C96.277 4.81066 96.6823 5.15199 97.1943 5.40799C97.1943 6.47466 96.6823 7.77599 95.6583 9.31199C94.6343 10.848 93.4183 12.4907 92.0103 14.24C91.285 15.0933 90.325 16.224 89.1303 17.632C87.9783 19.04 86.7197 20.5547 85.3543 22.176C83.989 23.7973 82.6877 25.3973 81.4503 26.976C80.213 28.5547 79.1463 29.9627 78.2503 31.2C77.397 32.3947 76.885 33.2693 76.7143 33.824C76.6717 34.1227 76.565 34.272 76.3943 34.272C76.1383 34.272 76.053 34.0587 76.1383 33.632C76.2237 33.0773 76.6717 32.16 77.4823 30.88C78.3357 29.5573 79.3597 28.064 80.5543 26.4C81.7917 24.736 83.0503 23.0933 84.3303 21.472C85.6103 19.808 86.741 18.3787 87.7223 17.184C88.7037 15.9467 89.3437 15.136 89.6423 14.752C90.2823 13.984 90.901 13.2373 91.4983 12.512C92.0957 11.744 92.6077 11.0187 93.0343 10.336C93.6317 9.52532 94.0583 8.84266 94.3143 8.28799C94.5703 7.69066 94.6983 7.26399 94.6983 7.00799C94.6983 6.66666 94.421 6.68799 93.8663 7.07199C93.3117 7.41332 92.4797 8.22399 91.3703 9.50399C90.3037 10.7413 89.045 12.2987 87.5943 14.176C86.1437 16.0107 84.6503 18.016 83.1143 20.192C81.5783 22.368 80.149 24.5867 78.8263 26.848C77.5037 29.1093 76.437 31.328 75.6263 33.504C74.8157 35.6373 74.4103 37.6 74.4103 39.392C74.4103 40.4587 74.581 41.2267 74.9223 41.696C75.3063 42.1227 75.733 42.336 76.2023 42.336C76.7143 42.336 77.2477 42.1653 77.8023 41.824C78.3997 41.4827 78.9117 41.0773 79.3383 40.608C80.533 39.328 81.3437 38.3253 81.7703 37.6C82.2397 36.8747 82.581 36.1707 82.7943 35.488C82.709 35.232 82.581 34.7627 82.4103 34.08C82.2823 33.3547 82.2183 32.5867 82.2183 31.776C82.2183 31.52 82.2183 31.264 82.2183 31.008C82.261 30.752 82.3037 30.5173 82.3463 30.304C82.6877 28.9387 83.1357 27.9573 83.6903 27.36C84.245 26.7627 84.7783 26.464 85.2903 26.464C85.717 26.464 86.101 26.6347 86.4423 26.976C86.6983 27.232 86.869 27.5307 86.9543 27.872C87.0397 28.2133 87.0823 28.576 87.0823 28.96C87.0823 29.8133 86.8903 30.7307 86.5063 31.712C86.165 32.6507 85.8663 33.4187 85.6103 34.016C85.0557 35.2533 84.3303 36.512 83.4343 37.792C82.5383 39.0293 81.7277 40.0747 81.0023 40.928C80.149 41.952 79.2317 42.6773 78.2503 43.104C77.3117 43.5307 76.4157 43.744 75.5623 43.744Z" fill="#FF5C02"/>
  <path d="M89.6838 42.848C88.7878 42.848 88.0412 42.656 87.4438 42.272C86.8892 41.888 86.6118 41.3547 86.6118 40.672C86.6118 39.6907 86.9105 38.5387 87.5078 37.216C88.1052 35.8507 88.6598 34.6347 89.1718 33.568C89.1292 33.44 89.0652 33.312 88.9798 33.184C88.9372 33.0133 89.0012 32.8213 89.1718 32.608C90.2385 31.0293 91.2625 29.664 92.2438 28.512C93.2252 27.3173 93.9292 26.72 94.3558 26.72C94.7398 26.72 95.2305 26.9333 95.8278 27.36C96.4252 27.744 96.9158 28.128 97.2998 28.512C96.5745 29.408 95.7638 30.432 94.8678 31.584C94.0145 32.6933 93.2252 33.8453 92.4998 35.04C91.7745 36.192 91.2198 37.28 90.8358 38.304C90.6225 39.0293 90.5158 39.4773 90.5158 39.648C90.5158 39.9467 90.6012 40.096 90.7718 40.096C91.0705 40.096 91.5612 39.7547 92.2438 39.072C93.2252 38.0907 94.2918 36.8533 95.4438 35.36C96.5958 33.824 97.7052 32.3093 98.7718 30.816C99.8385 29.3227 100.713 28.1707 101.396 27.36C101.908 26.72 102.441 26.4 102.996 26.4C103.465 26.4 103.913 26.5707 104.34 26.912C104.809 27.2533 105.257 27.68 105.684 28.192C105.087 28.96 104.34 30.0053 103.444 31.328C102.59 32.608 101.801 33.9307 101.076 35.296C100.351 36.6613 99.8812 37.856 99.6678 38.88C99.6252 39.0507 99.5825 39.2427 99.5398 39.456C99.5398 39.6693 99.5398 39.8613 99.5398 40.032C99.5398 40.672 99.7105 40.992 100.052 40.992C100.351 40.992 100.756 40.7573 101.268 40.288C101.908 39.6907 102.569 38.9227 103.252 37.984C103.935 37.0453 104.681 36.064 105.492 35.04C105.833 34.656 106.132 34.2933 106.388 33.952C106.686 33.568 106.985 33.184 107.284 32.8C107.924 31.9893 108.329 31.584 108.5 31.584C108.628 31.584 108.585 31.8187 108.372 32.288C108.201 32.7573 107.945 33.2907 107.604 33.888C107.263 34.4853 106.921 35.0187 106.58 35.488C106.196 36.0853 105.769 36.7467 105.3 37.472C104.831 38.1547 104.319 38.816 103.764 39.456C103.124 40.224 102.505 40.928 101.908 41.568C101.311 42.208 100.628 42.528 99.8598 42.528C98.6225 42.528 97.6838 42.2293 97.0438 41.632C96.4465 41.0347 96.1478 40.352 96.1478 39.584C96.1478 38.8587 96.3398 37.984 96.7238 36.96C97.1505 35.936 97.5132 35.04 97.8118 34.272C97.5132 34.528 97.0225 35.1253 96.3398 36.064C95.6998 36.96 94.9532 37.9413 94.0998 39.008C93.2892 40.032 92.4785 40.928 91.6678 41.696C90.8572 42.464 90.1958 42.848 89.6838 42.848Z" fill="#FF5C02"/>
  <path d="M112.414 43.488C111.219 43.488 110.409 43.104 109.982 42.336C109.598 41.5253 109.47 40.7147 109.598 39.904C109.769 38.7947 110.131 37.792 110.686 36.896C111.283 36 111.881 35.1467 112.478 34.336C112.905 33.7813 113.203 33.312 113.374 32.928C113.587 32.544 113.523 32.3307 113.182 32.288C112.969 32.4587 112.627 32.6293 112.158 32.8C111.689 32.9707 111.219 33.056 110.75 33.056C110.366 33.056 110.003 32.9707 109.662 32.8C109.321 32.6293 109.086 32.3307 108.958 31.904C108.531 32.5867 108.126 33.2267 107.742 33.824C107.358 34.3787 106.995 34.912 106.654 35.424C106.014 36.32 105.417 37.1733 104.862 37.984C104.307 38.752 103.582 39.648 102.686 40.672C102.387 41.0133 102.11 41.184 101.854 41.184C101.598 41.184 101.47 41.0347 101.47 40.736C101.47 40.5653 101.534 40.3947 101.662 40.224C102.643 39.0293 103.454 38.0053 104.094 37.152C104.734 36.256 105.481 35.2107 106.334 34.016C107.187 32.736 107.934 31.3067 108.574 29.728C109.214 28.1493 109.726 26.7413 110.11 25.504C110.494 24.224 110.707 23.456 110.75 23.2C111.859 23.6267 112.627 24.096 113.054 24.608C113.523 25.12 113.758 25.6747 113.758 26.272C113.758 27.0827 113.374 27.9147 112.606 28.768C111.881 29.6213 111.027 30.4107 110.046 31.136C110.43 31.6907 110.878 31.968 111.39 31.968C111.945 31.968 112.499 31.7333 113.054 31.264C113.651 30.7947 114.099 30.4107 114.398 30.112C115.081 29.2587 115.827 28.832 116.638 28.832C117.107 28.832 117.513 28.9813 117.854 29.28C118.238 29.536 118.43 29.8773 118.43 30.304C118.43 30.5173 118.366 30.7307 118.238 30.944C117.598 31.7973 116.873 32.8427 116.062 34.08C115.251 35.3173 114.505 36.5547 113.822 37.792C113.182 38.9867 112.713 40.0107 112.414 40.864C112.371 41.0347 112.329 41.184 112.286 41.312C112.286 41.3973 112.286 41.4827 112.286 41.568C112.286 41.9093 112.435 42.08 112.734 42.08C112.947 42.08 113.203 41.9947 113.502 41.824C113.801 41.6533 114.035 41.4827 114.206 41.312C114.974 40.6293 115.934 39.5627 117.086 38.112C118.238 36.6613 119.305 35.2747 120.286 33.952C120.883 33.0987 121.289 32.672 121.502 32.672C121.715 32.672 121.715 32.9493 121.502 33.504C121.331 34.0587 121.011 34.6987 120.542 35.424C119.902 36.32 119.155 37.408 118.302 38.688C117.491 39.9253 116.574 41.0347 115.55 42.016C114.569 42.9973 113.523 43.488 112.414 43.488Z" fill="#FF5C02"/>
  <path d="M123.986 43.488C122.962 43.488 121.938 43.1893 120.914 42.592C119.933 41.952 119.314 40.8427 119.058 39.264C119.016 39.0933 118.994 38.816 118.994 38.432C118.994 37.152 119.336 35.7653 120.018 34.272C120.744 32.736 121.661 31.2853 122.77 29.92C123.922 28.5547 125.138 27.4453 126.418 26.592C127.698 25.7387 128.914 25.312 130.066 25.312C130.322 25.6107 130.728 25.824 131.282 25.952C131.88 26.08 132.434 26.208 132.946 26.336C133.544 26.5067 133.97 26.784 134.226 27.168C134.525 27.552 134.674 27.9787 134.674 28.448C134.674 29.0027 134.482 29.6213 134.098 30.304C133.714 30.944 133.224 31.52 132.626 32.032C131.645 32.8 130.514 33.568 129.234 34.336C127.954 35.0613 126.781 35.7867 125.714 36.512C124.69 37.1947 124.029 37.8773 123.73 38.56C123.645 38.7733 123.517 38.88 123.346 38.88C123.048 38.88 122.962 38.7093 123.09 38.368C123.517 37.088 124.264 36 125.33 35.104C126.397 34.208 127.506 33.376 128.658 32.608C129.853 31.7973 130.813 30.944 131.538 30.048C132.093 29.4507 132.37 28.896 132.37 28.384C132.37 27.8293 132.072 27.552 131.474 27.552C130.962 27.552 130.408 27.7653 129.81 28.192C128.104 29.344 126.504 30.88 125.01 32.8C123.517 34.6773 122.514 36.6187 122.002 38.624C121.874 39.136 121.81 39.6053 121.81 40.032C121.81 40.8427 122.024 41.4187 122.45 41.76C122.877 42.0587 123.389 42.208 123.986 42.208C124.498 42.208 125.032 42.1227 125.586 41.952C126.141 41.7813 126.632 41.568 127.058 41.312C127.698 40.928 128.338 40.4373 128.978 39.84C129.618 39.2 130.152 38.624 130.578 38.112C131.56 36.8747 132.242 36.256 132.626 36.256C132.84 36.256 132.797 36.5547 132.498 37.152C132.242 37.7493 131.688 38.5813 130.834 39.648C130.024 40.672 129.042 41.568 127.89 42.336C126.781 43.104 125.48 43.488 123.986 43.488Z" fill="#FF5C02"/>
  <path d="M134.033 42.656C133.607 42.656 133.116 42.464 132.561 42.08C132.049 41.6533 131.815 41.184 131.857 40.672C131.985 38.8373 132.369 36.768 133.009 34.464C133.649 32.16 134.46 29.792 135.441 27.36C136.423 24.928 137.511 22.5387 138.705 20.192C139.943 17.8453 141.18 15.6907 142.417 13.728C143.655 11.7227 144.849 10.0587 146.001 8.73599C150.737 3.14666 155.879 0.35199 161.425 0.35199C162.321 0.35199 163.324 0.501322 164.433 0.799988C165.543 1.05599 166.268 1.35466 166.609 1.69599C166.737 1.82399 166.801 1.93066 166.801 2.01599C166.801 2.18665 166.716 2.31466 166.545 2.39999C166.375 2.48532 166.183 2.46399 165.969 2.33599C165.415 1.99466 164.86 1.73866 164.305 1.56799C163.793 1.39732 163.153 1.31199 162.385 1.31199C160.508 1.31199 158.481 2.14399 156.305 3.80799C154.129 5.42932 151.953 7.49866 149.777 10.016C147.644 12.4053 145.703 14.9867 143.953 17.76C142.204 20.5333 140.647 23.328 139.281 26.144C137.959 28.9173 136.807 31.5413 135.825 34.016C135.697 34.3573 135.676 34.5707 135.761 34.656C135.889 34.7413 135.996 34.6987 136.081 34.528C136.38 33.9307 136.7 33.3333 137.041 32.736C137.383 32.1387 137.767 31.4987 138.193 30.816C139.559 28.6827 140.924 26.8267 142.289 25.248C143.655 23.6693 144.935 22.7307 146.129 22.432C146.343 22.6027 146.748 22.816 147.345 23.072C147.943 23.2853 148.391 23.4987 148.689 23.712C149.244 24.096 149.521 24.672 149.521 25.44C149.521 25.9947 149.372 26.6133 149.073 27.296C148.775 27.936 148.391 28.5547 147.921 29.152C146.94 30.3467 145.937 31.1787 144.913 31.648C143.889 32.1173 142.865 32.4587 141.841 32.672C141.927 33.2693 142.055 34.1867 142.225 35.424C142.396 36.6187 142.588 37.728 142.801 38.752C143.015 39.52 143.271 40.0747 143.569 40.416C143.868 40.7147 144.188 40.864 144.529 40.864C144.999 40.864 145.511 40.672 146.065 40.288C146.62 39.8613 147.132 39.3707 147.601 38.816C148.455 37.8347 149.223 36.8533 149.905 35.872C150.631 34.848 151.079 34.208 151.249 33.952C151.932 33.0987 152.359 32.672 152.529 32.672C152.743 32.672 152.743 32.9493 152.529 33.504C152.316 34.0587 151.975 34.6987 151.505 35.424C151.207 35.8933 150.844 36.448 150.417 37.088C149.991 37.6853 149.521 38.3253 149.009 39.008C148.284 40.032 147.495 40.8853 146.641 41.568C145.788 42.208 144.828 42.528 143.761 42.528C142.225 42.528 141.095 42.1013 140.369 41.248C139.644 40.3947 139.132 39.264 138.833 37.856C138.535 36.448 138.236 34.912 137.937 33.248C136.999 34.8267 136.188 36.4053 135.505 37.984C134.865 39.5627 134.545 40.9067 134.545 42.016C134.545 42.4427 134.375 42.656 134.033 42.656ZM138.193 32.8C138.62 32.5867 139.089 32.3733 139.601 32.16C140.156 31.904 140.647 31.776 141.073 31.776C141.585 31.4773 142.076 31.136 142.545 30.752C143.015 30.3253 143.505 29.8773 144.017 29.408C144.487 28.9387 144.849 28.384 145.105 27.744C145.404 27.0613 145.553 26.464 145.553 25.952C145.553 25.3547 145.361 25.056 144.977 25.056C144.679 25.056 144.231 25.2693 143.633 25.696C143.079 26.1227 142.375 26.8693 141.521 27.936C141.052 28.576 140.519 29.3227 139.921 30.176C139.367 30.9867 138.791 31.8613 138.193 32.8Z" fill="#FF5C02"/>
</svg>
