<svg xmlns="http://www.w3.org/2000/svg" xmlns:xlink="http://www.w3.org/1999/xlink"><symbol id="icon__cart" viewBox="0 0 24 24"><path d="M3.75 4.5a.75.75 0 000 1.5h1.665l1.968 7.875A1.488 1.488 0 008.836 15h8.602c.678 0 1.253-.45 1.43-1.102l1.945-7.148H8.25l.375 1.5h10.242l-1.43 5.25H8.835L6.868 5.625A1.488 1.488 0 005.415 4.5H3.75zM16.5 15a2.261 2.261 0 00-2.25 2.25 2.261 2.261 0 002.25 2.25 2.261 2.261 0 002.25-2.25A2.261 2.261 0 0016.5 15zm-6.75 0a2.261 2.261 0 00-2.25 2.25 2.262 2.262 0 002.25 2.25A2.262 2.262 0 0012 17.25 2.261 2.261 0 009.75 15zm0 1.5c.423 0 .75.327.75.75s-.327.75-.75.75a.739.739 0 01-.75-.75c0-.423.327-.75.75-.75zm6.75 0c.423 0 .75.327.75.75s-.327.75-.75.75a.739.739 0 01-.75-.75c0-.423.327-.75.75-.75z" fill="#fff"/></symbol><symbol id="icon__close" viewBox="0 0 24 24"><path d="M12 10.586l4.95-4.95 1.415 1.415-4.95 4.95 4.95 4.95-1.415 1.414-4.95-4.95-4.95 4.95-1.413-1.415 4.95-4.95-4.95-4.95L7.05 5.638l4.95 4.95v-.002z" fill="currenColor"/></symbol><symbol id="icon__eye--off" viewBox="0 0 24 24"><path d="M2 5.27L3.28 4 20 20.72 18.73 22l-3.08-3.08c-1.15.38-2.37.58-3.65.58-5 0-9.27-3.11-11-7.5.69-1.76 1.79-3.31 3.19-4.54L2 5.27zM12 9a3 3 0 012.83 4L11 9.17A3 3 0 0112 9zm0-4.5c5 0 9.27 3.11 11 7.5a11.79 11.79 0 01-4 5.19l-1.42-1.43A9.862 9.862 0 0020.82 12 9.82 9.82 0 0012 6.5c-1.09 0-2.16.18-3.16.5L7.3 5.47c1.44-.62 3.03-.97 4.7-.97zM3.18 12A9.821 9.821 0 0012 17.5c.69 0 1.37-.07 2-.21L11.72 15A3.064 3.064 0 019 12.28L5.6 8.87c-.99.85-1.82 1.91-2.42 3.13z" fill="currentColor"/></symbol><symbol id="icon__eye" viewBox="0 0 24 24"><path d="M12 9a3 3 0 110 6 3 3 0 010-6zm0-4.5c5 0 9.27 3.11 11 7.5-1.73 4.39-6 7.5-11 7.5S2.73 16.39 1 12c1.73-4.39 6-7.5 11-7.5zM3.18 12a9.822 9.822 0 0017.64 0 9.821 9.821 0 00-17.64 0z" fill="currentColor"/></symbol><symbol id="icon__logout" viewBox="0 0 24 24"><path d="M17 7l-1.41 1.41L18.17 11H8v2h10.17l-2.58 2.58L17 17l5-5-5-5zM4 5h8V3H4c-1.1 0-2 .9-2 2v14c0 1.1.9 2 2 2h8v-2H4V5z" fill="currentColor"/></symbol><symbol id="icon__trash" viewBox="0 0 24 24"><path fill-rule="evenodd" clip-rule="evenodd" d="M13.69 2.25c.217 0 .406 0 .584.028a2.25 2.25 0 011.64 1.183c.08.154.138.325.204.52l.008.024.111.335a1.25 1.25 0 001.263.91h3a.75.75 0 110 1.5h-17a.75.75 0 010-1.5h3.09a1.25 1.25 0 001.173-.91l.112-.335.003-.008c.066-.201.125-.378.207-.536a2.25 2.25 0 011.641-1.183c.178-.028.367-.028.583-.028h3.381zm-4.682 3c.07-.138.129-.28.175-.428l.1-.3c.091-.273.112-.328.133-.368a.75.75 0 01.547-.395 3.2 3.2 0 01.392-.009h3.29c.288 0 .348.002.392.01a.75.75 0 01.547.394c.021.04.042.095.133.369l.1.3.039.112c.039.11.085.214.136.315H9.008z" fill="currentColor"/><path d="M5.915 8.45a.75.75 0 10-1.497.1l.464 6.952c.085 1.282.154 2.318.316 3.132.169.845.455 1.551 1.047 2.104.59.554 1.315.793 2.17.904.822.108 1.86.108 3.146.108h.879c1.285 0 2.324 0 3.146-.108.854-.111 1.578-.35 2.17-.904.59-.553.877-1.26 1.046-2.104.16-.801.228-1.82.312-3.078l.468-7.006a.75.75 0 00-1.497-.1l-.46 6.9c-.09 1.347-.154 2.285-.294 2.99-.137.685-.327 1.047-.6 1.303-.274.256-.648.422-1.34.512-.713.093-1.653.095-3.004.095h-.774c-1.35 0-2.29-.002-3.004-.095-.692-.09-1.066-.256-1.34-.512-.273-.256-.463-.618-.6-1.302-.14-.706-.204-1.644-.294-2.992l-.46-6.899z" fill="currentColor"/><path d="M9.974 10.42a.75.75 0 00-1.22.655l.5 5a.75.75 0 001.492-.15l-.5-5a.75.75 0 00-.272-.506zM15.08 10.525a.75.75 0 00-1.326.4l-.5 5a.75.75 0 001.492.149l.5-5a.75.75 0 00-.166-.549z" fill="currentColor"/></symbol><symbol id="icon__vk" viewBox="0 0 24 24"><path d="M22.673 16.876c0-.083-.083-.083-.083-.166-.332-.664-1.08-1.495-2.076-2.408-.498-.415-.747-.747-.913-.913-.25-.332-.25-.581-.166-.913.083-.25.415-.664.996-1.412.332-.415.498-.664.747-.913 1.246-1.66 1.827-2.74 1.66-3.238l-.082-.083c-.083-.083-.166-.166-.332-.166-.166-.083-.415-.083-.665 0H18.023l-.083.083c-.083.083-.083.083-.083.166-.332.913-.747 1.66-1.162 2.49-.249.416-.498.831-.747 1.163-.25.332-.415.581-.581.747-.166.166-.332.25-.415.416-.084.083-.25.166-.25.083-.082 0-.165 0-.165-.083l-.25-.25c-.083-.082-.083-.249-.166-.415v-.415-.498-.498-.913-.747-.582-.498c0-.083-.083-.249-.083-.332l-.249-.249c-.083-.083-.249-.083-.332-.166A7.447 7.447 0 0011.963 6c-1.329 0-2.242.083-2.574.25-.166.082-.332.165-.415.331-.166.166-.166.25-.083.25.415.082.747.248.913.497l.083.166c.083.083.083.25.166.499s.083.498.083.83v1.328c0 .415-.083.664-.083.913 0 .25-.083.415-.166.498-.083.167-.083.25-.166.25 0 0 0 .083-.083.083s-.166.083-.332.083c-.083 0-.249-.083-.332-.166a1 1 0 01-.415-.415c-.166-.167-.332-.416-.498-.748-.166-.332-.415-.664-.581-1.162l-.167-.332c-.083-.166-.249-.498-.415-.913-.166-.416-.332-.748-.498-1.163a1.146 1.146 0 00-.249-.332h-.083s-.083-.083-.166-.083-.166-.083-.249-.083H2.664c-.332 0-.498.083-.581.166L2 6.83v.166c0 .083 0 .166.083.332.415.997.913 1.993 1.411 2.99.499.912.997 1.743 1.329 2.324.415.581.747 1.162 1.162 1.66.415.498.664.83.747.997l.332.332.25.249c.166.166.415.415.747.664.332.249.747.498 1.162.747.415.25.913.415 1.411.581.582.166 1.08.25 1.578.166h1.245a.754.754 0 00.581-.249l.083-.083c0-.083.083-.083.083-.166v-.332c0-.332 0-.581.083-.83.083-.25.083-.415.166-.581.084-.166.167-.25.25-.332l.166-.166h.083c.166-.083.415 0 .58.166.25.166.499.415.665.664.166.249.415.498.747.83.332.332.581.581.747.664l.25.166c.165.083.332.166.58.25.25.082.416.082.582.082l2.822-.083c.25 0 .499-.083.665-.166.166-.083.249-.166.249-.332v-.332c-.166-.166-.166-.249-.166-.332z" fill="currentColor"/></symbol><symbol id="icon__wallet" viewBox="0 0 24 24"><path d="M6.286 4v2.286H4V7.81h2.286v2.285H7.81V7.81h2.285V6.286H7.81V4H6.286zm5.333 2.286V7.81h6.857v1.523h-4.571c-.838 0-1.524.686-1.524 1.524v4.572c0 .838.686 1.523 1.524 1.523h4.571v1.524H7.81V11.62H6.286v6.857A1.524 1.524 0 007.81 20h10.666c.838 0 1.524-.686 1.524-1.524V16.74a1.524 1.524 0 00.762-1.31v-4.572A1.524 1.524 0 0020 9.547V7.81c0-.839-.686-1.524-1.524-1.524H11.62zm2.286 4.571h5.333v4.572h-5.333v-4.572zM16.19 12a1.143 1.143 0 100 2.286 1.143 1.143 0 000-2.286z" fill="currentColor"/></symbol><symbol id="img__texture" viewBox="0 0 2630 49"><path d="M47.67 1L1 47.669M62.338 1L15.67 47.669M77.007 1L30.338 47.669M91.676 1L45.007 47.669M106.345 1L59.676 47.669M121.014 1L74.345 47.669M135.683 1L89.014 47.669M150.352 1l-46.669 46.669M165.021 1l-46.669 46.669M179.69 1l-46.669 46.669M194.36 1l-46.669 46.669M209.029 1L162.36 47.669M223.698 1l-46.669 46.669M238.367 1l-46.669 46.669M253.036 1l-46.669 46.669M267.705 1l-46.669 46.669M282.374 1l-46.669 46.669M297.043 1l-46.669 46.669M311.712 1l-46.669 46.669M326.381 1l-46.669 46.669M341.05 1l-46.669 46.669M355.719 1L309.05 47.669M370.388 1l-46.669 46.669M385.057 1l-46.669 46.669M399.726 1l-46.669 46.669M414.395 1l-46.669 46.669M429.064 1l-46.669 46.669M443.733 1l-46.669 46.669M458.402 1l-46.669 46.669M473.071 1l-46.669 46.669M487.74 1l-46.669 46.669M502.409 1L455.74 47.669M517.078 1l-46.669 46.669M531.747 1l-46.669 46.669M546.417 1l-46.67 46.669M561.086 1l-46.669 46.669M575.755 1l-46.669 46.669M590.424 1l-46.669 46.669M605.093 1l-46.669 46.669M619.762 1l-46.669 46.669M634.431 1l-46.669 46.669M649.1 1l-46.669 46.669M663.769 1L617.1 47.669M678.438 1l-46.669 46.669M693.107 1l-46.669 46.669M707.776 1l-46.669 46.669M722.445 1l-46.669 46.669M737.115 1l-46.67 46.669M751.783 1l-46.669 46.669M766.453 1l-46.67 46.669M781.122 1l-46.669 46.669M795.791 1l-46.669 46.669M810.46 1l-46.669 46.669M825.129 1L778.46 47.669M839.798 1l-46.669 46.669M854.467 1l-46.669 46.669M869.136 1l-46.669 46.669M883.805 1l-46.669 46.669M898.474 1l-46.669 46.669M913.143 1l-46.669 46.669M927.812 1l-46.669 46.669M942.481 1l-46.669 46.669M957.15 1l-46.669 46.669M971.819 1L925.15 47.669M986.489 1l-46.67 46.669M1001.16 1l-46.671 46.669M1015.83 1l-46.672 46.669M1030.5 1l-46.673 46.669M1045.16 1l-46.664 46.669M1059.83 1l-46.67 46.669M1074.5 1l-46.67 46.669M1089.17 1l-46.67 46.669M1103.84 1l-46.67 46.669M1118.51 1l-46.67 46.669M1133.18 1l-46.67 46.669M1147.85 1l-46.67 46.669M1162.52 1l-46.67 46.669M1177.19 1l-46.67 46.669M1191.86 1l-46.67 46.669M1206.52 1l-46.66 46.669M1221.19 1l-46.67 46.669M1235.86 1l-46.67 46.669M1250.53 1l-46.67 46.669M1265.2 1l-46.67 46.669M1279.87 1l-46.67 46.669M1294.54 1l-46.67 46.669M1309.21 1l-46.67 46.669M1323.88 1l-46.67 46.669M1338.55 1l-46.67 46.669M1353.22 1l-46.67 46.669M1367.88 1l-46.66 46.669M1382.55 1l-46.67 46.669M1397.22 1l-46.67 46.669M1411.89 1l-46.67 46.669M1426.56 1l-46.67 46.669M1441.23 1l-46.67 46.669M1455.9 1l-46.67 46.669M1470.57 1l-46.67 46.669M1485.24 1l-46.67 46.669M1499.91 1l-46.67 46.669M1514.57 1l-46.66 46.669M1529.24 1l-46.67 46.669M1543.91 1l-46.67 46.669M1558.58 1l-46.67 46.669M1573.25 1l-46.67 46.669M1587.92 1l-46.67 46.669M1602.59 1l-46.67 46.669M1617.26 1l-46.67 46.669M1631.93 1l-46.67 46.669M1646.6 1l-46.67 46.669M1661.27 1l-46.67 46.669M1675.93 1l-46.66 46.669M1690.6 1l-46.67 46.669M1705.27 1l-46.67 46.669M1719.94 1l-46.67 46.669M1734.61 1l-46.67 46.669M1749.28 1l-46.67 46.669M1763.95 1l-46.67 46.669M1778.62 1l-46.67 46.669M1793.29 1l-46.67 46.669M1807.96 1l-46.67 46.669M1822.63 1l-46.67 46.669M1837.29 1l-46.66 46.669M1851.96 1l-46.67 46.669M1866.63 1l-46.67 46.669M1881.3 1l-46.67 46.669M1895.97 1l-46.67 46.669M1910.64 1l-46.67 46.669M1925.31 1l-46.67 46.669M1939.98 1l-46.67 46.669M1954.65 1l-46.67 46.669M1969.32 1l-46.67 46.669M1983.99 1l-46.67 46.669M1998.65 1l-46.66 46.669M2013.32 1l-46.67 46.669M2027.99 1l-46.67 46.669M2042.66 1l-46.67 46.669M2057.33 1l-46.67 46.669M2072 1l-46.67 46.669M2086.67 1L2040 47.669M2101.34 1l-46.67 46.669M2116.01 1l-46.67 46.669M2130.68 1l-46.67 46.669M2145.34 1l-46.66 46.669M2160.01 1l-46.67 46.669M2174.68 1l-46.67 46.669M2189.35 1l-46.67 46.669M2204.02 1l-46.67 46.669M2218.69 1l-46.67 46.669M2233.36 1l-46.67 46.669M2248.03 1l-46.67 46.669M2262.7 1l-46.67 46.669M2277.36 1l-46.66 46.669M2292.03 1l-46.67 46.669M2306.7 1l-46.67 46.669M2321.37 1l-46.67 46.669M2336.04 1l-46.67 46.669M2350.71 1l-46.67 46.669M2365.38 1l-46.67 46.669M2380.05 1l-46.67 46.669M2394.72 1l-46.67 46.669M2409.39 1l-46.67 46.669M2424.05 1l-46.66 46.669M2438.72 1l-46.67 46.669M2453.39 1l-46.67 46.669M2468.06 1l-46.67 46.669M2482.73 1l-46.67 46.669M2497.4 1l-46.67 46.669M2512.07 1l-46.67 46.669M2526.74 1l-46.67 46.669M2541.41 1l-46.67 46.669M2556.07 1l-46.66 46.669M2570.74 1l-46.67 46.669M2585.41 1l-46.67 46.669M2600.08 1l-46.67 46.669M2614.75 1l-46.67 46.669M2629.42 1l-46.67 46.669" stroke="currentColor"/></symbol><symbol id="logo__cheburek" viewBox="0 0 168 48"><path d="M15.765 44.704c-1.834 0-3.626-.299-5.376-.896-1.749-.555-3.392-1.493-4.928-2.816a5.484 5.484 0 01-.896-1.024c-.256-.427-.618-.853-1.088-1.28a16.801 16.801 0 00-1.536-1.472 9.069 9.069 0 01-1.408-1.472c-.17-.299-.32-.79-.448-1.472a10.04 10.04 0 01-.064-1.92c.214-2.005.918-4.075 2.112-6.208 1.238-2.176 2.816-4.288 4.736-6.336a54.219 54.219 0 016.528-5.888 59.472 59.472 0 017.424-4.992c2.56-1.45 5.056-2.603 7.488-3.456a27.877 27.877 0 014.224-1.088A23.625 23.625 0 0136.63 4c1.622 0 2.987.235 4.096.704 1.11.427 1.686 1.13 1.728 2.112.811 1.067 1.216 2.325 1.216 3.776 0 1.835-.597 3.541-1.792 5.12a48.147 48.147 0 01-3.52 3.968 29.826 29.826 0 01-3.904 3.264c-1.45.981-3.242 2.027-5.376 3.136-.213.17-.448.256-.704.256-.298 0-.448-.128-.448-.384 0-.128.086-.277.256-.448 2.646-1.28 4.822-2.73 6.528-4.352 1.707-1.621 3.008-3.221 3.904-4.8.47-.853.939-1.792 1.408-2.816.47-1.024.704-1.941.704-2.752 0-.725-.277-1.323-.832-1.792-.512-.47-1.45-.704-2.816-.704-2.602 0-5.333.512-8.192 1.536-2.858 1.024-5.674 2.432-8.448 4.224a43.546 43.546 0 00-7.488 6.208c-2.261 2.304-4.117 4.757-5.568 7.36-1.45 2.603-2.304 5.205-2.56 7.808-.042.17-.064.341-.064.512v.512c0 2.219.726 3.776 2.176 4.672 1.494.896 3.35 1.344 5.568 1.344 1.963 0 4.096-.256 6.4-.768a72.86 72.86 0 006.784-1.984 81.82 81.82 0 006.08-2.432c1.792-.81 3.158-1.515 4.096-2.112.555-.341.982-.576 1.28-.704.342-.17.598-.256.768-.256.128 0 .192.043.192.128 0 .256-.32.704-.96 1.344-.938.896-2.09 1.835-3.456 2.816a30.664 30.664 0 01-4.032 2.432 44.894 44.894 0 01-6.72 2.624c-2.389.768-4.778 1.152-7.168 1.152zM49.307 47.648c-1.28 0-2.133-.384-2.56-1.152-.384-.768-.576-1.493-.576-2.176 0-1.067.278-2.325.832-3.776a44.128 44.128 0 011.984-4.416c.768-1.536 1.472-2.88 2.112-4.032.299-.47.491-.853.576-1.152.128-.299.192-.533.192-.704 0-.341-.256-.341-.768 0-.469.341-1.066.875-1.792 1.6-.725.683-1.45 1.43-2.176 2.24a44.473 44.473 0 00-1.792 2.112 25.036 25.036 0 00-1.92 2.944 34.475 34.475 0 01-1.664 2.88c-.213.341-.576.512-1.088.512-.469 0-.96-.192-1.472-.576-.469-.427-.704-1.088-.704-1.984 0-.085.214-.81.64-2.176a346.88 346.88 0 011.792-5.056c.768-2.005 1.6-4.096 2.496-6.272.939-2.219 1.878-4.203 2.816-5.952a88.987 88.987 0 013.968-6.528c1.494-2.176 2.987-4.139 4.48-5.888 1.536-1.792 2.944-3.2 4.224-4.224 1.323-1.024 2.39-1.493 3.2-1.408.811.085 1.387.341 1.728.768.342.427.64.896.896 1.408.299.47.704.832 1.216 1.088-.213 2.39-2.069 5.461-5.568 9.216a231.618 231.618 0 01-3.776 3.968 441.316 441.316 0 00-4.224 4.544 107.784 107.784 0 00-3.584 4.224c-1.024 1.28-1.706 2.304-2.048 3.072-.128.341-.277.512-.448.512-.128 0-.192-.128-.192-.384 0-.47.299-1.216.896-2.24.598-1.024 1.366-2.176 2.304-3.456a90.026 90.026 0 012.88-3.84c1.024-1.28 1.942-2.41 2.752-3.392a85.915 85.915 0 011.856-2.176c.768-.853 1.515-1.685 2.24-2.496a62.39 62.39 0 001.92-2.24c1.494-1.877 2.24-3.093 2.24-3.648 0-.341-.341-.299-1.024.128-.682.384-1.664 1.259-2.944 2.624-.938.981-2.005 2.133-3.2 3.456a108.109 108.109 0 00-3.392 4.096c-1.109 1.408-2.09 2.71-2.944 3.904a73.884 73.884 0 00-3.072 5.12 50.19 50.19 0 00-2.496 5.056c-.682 1.621-1.13 3.03-1.344 4.224 0 .043-.021.085-.064.128v.192c0 .128.043.192.128.192.256 0 .512-.17.768-.512a126.852 126.852 0 003.392-3.392c1.195-1.28 2.39-2.539 3.584-3.776a85.956 85.956 0 013.328-3.392c.342.213.875.341 1.6.384.726.043 1.302.192 1.728.448.512.299.768.725.768 1.28 0 .64-.256 1.365-.768 2.176-.469.81-.981 1.579-1.536 2.304a59.106 59.106 0 01-1.28 1.536c-.512.597-1.109 1.387-1.792 2.368a52.312 52.312 0 00-2.048 3.2 30.265 30.265 0 00-1.664 3.328c-.426 1.067-.64 2.005-.64 2.816 0 .341.043.64.128.896.128.299.299.448.512.448.214 0 .534-.17.96-.512a9.606 9.606 0 001.024-.896c.342-.299.662-.533.96-.704.128-.213.278-.32.448-.32.214 0 .214.192 0 .576a8.21 8.21 0 01-1.216 1.984c-.426.597-1.024.896-1.792.896zM61.611 43.488c-1.024 0-2.048-.299-3.072-.896-.981-.64-1.6-1.75-1.856-3.328-.042-.17-.064-.448-.064-.832 0-1.28.342-2.667 1.024-4.16a21.336 21.336 0 012.752-4.352c1.152-1.365 2.368-2.475 3.648-3.328 1.28-.853 2.496-1.28 3.648-1.28.256.299.662.512 1.216.64a50.56 50.56 0 011.664.384c.598.17 1.024.448 1.28.832.299.384.448.81.448 1.28 0 .555-.192 1.173-.576 1.856a7.042 7.042 0 01-1.472 1.728 33.358 33.358 0 01-3.392 2.304 50.863 50.863 0 00-3.52 2.176c-1.024.683-1.685 1.365-1.984 2.048-.085.213-.213.32-.384.32-.298 0-.384-.17-.256-.512.427-1.28 1.174-2.368 2.24-3.264a37.59 37.59 0 013.328-2.496c1.195-.81 2.155-1.664 2.88-2.56.555-.597.832-1.152.832-1.664 0-.555-.298-.832-.896-.832-.512 0-1.066.213-1.664.64-1.706 1.152-3.306 2.688-4.8 4.608-1.493 1.877-2.496 3.819-3.008 5.824a5.843 5.843 0 00-.192 1.408c0 .81.214 1.387.64 1.728.427.299.939.448 1.536.448.512 0 1.046-.085 1.6-.256a6.656 6.656 0 001.472-.64 11.54 11.54 0 001.92-1.472c.64-.64 1.174-1.216 1.6-1.728.982-1.237 1.664-1.856 2.048-1.856.214 0 .171.299-.128.896-.256.597-.81 1.43-1.664 2.496a12.712 12.712 0 01-2.944 2.688c-1.109.768-2.41 1.152-3.904 1.152zM75.562 43.744c-1.536 0-2.645-.448-3.328-1.344-.64-.896-.96-2.09-.96-3.584 0-1.877.406-4.075 1.216-6.592.854-2.517 1.942-5.163 3.264-7.936a92.591 92.591 0 014.48-8.064c1.664-2.645 3.328-5.035 4.992-7.168 1.664-2.133 3.2-3.797 4.608-4.992 1.408-1.237 2.56-1.813 3.456-1.728.768.085 1.323.341 1.664.768.384.384.726.81 1.024 1.28.299.427.704.768 1.216 1.024 0 1.067-.512 2.368-1.536 3.904s-2.24 3.179-3.648 4.928l-2.88 3.392a417.878 417.878 0 01-3.776 4.544 176.364 176.364 0 00-3.904 4.8 141.426 141.426 0 00-3.2 4.224c-.853 1.195-1.365 2.07-1.536 2.624-.042.299-.149.448-.32.448-.256 0-.341-.213-.256-.64.086-.555.534-1.472 1.344-2.752a110.826 110.826 0 013.072-4.48 214.91 214.91 0 013.776-4.928 174.15 174.15 0 013.392-4.288 414.805 414.805 0 001.92-2.432c.64-.768 1.259-1.515 1.856-2.24a26.132 26.132 0 001.536-2.176c.598-.81 1.024-1.493 1.28-2.048.256-.597.384-1.024.384-1.28 0-.341-.277-.32-.832.064-.554.341-1.386 1.152-2.496 2.432-1.066 1.237-2.325 2.795-3.776 4.672a138.438 138.438 0 00-4.48 6.016 92.705 92.705 0 00-4.288 6.656c-1.322 2.261-2.389 4.48-3.2 6.656-.81 2.133-1.216 4.096-1.216 5.888 0 1.067.171 1.835.512 2.304.384.427.811.64 1.28.64.512 0 1.046-.17 1.6-.512a6.235 6.235 0 001.536-1.216c1.195-1.28 2.006-2.283 2.432-3.008.47-.725.811-1.43 1.024-2.112a22.583 22.583 0 01-.384-1.408 13.25 13.25 0 01-.192-2.304v-.768c.043-.256.086-.49.128-.704.342-1.365.79-2.347 1.344-2.944.555-.597 1.088-.896 1.6-.896.427 0 .811.17 1.152.512.256.256.427.555.512.896.086.341.128.704.128 1.088 0 .853-.192 1.77-.576 2.752-.341.939-.64 1.707-.896 2.304-.554 1.237-1.28 2.496-2.176 3.776a51.938 51.938 0 01-2.432 3.136c-.853 1.024-1.77 1.75-2.752 2.176-.938.427-1.834.64-2.688.64zM89.684 42.848c-.896 0-1.643-.192-2.24-.576-.555-.384-.832-.917-.832-1.6 0-.981.299-2.133.896-3.456a115.565 115.565 0 011.664-3.648 1.61 1.61 0 00-.192-.384c-.043-.17.021-.363.192-.576 1.067-1.579 2.09-2.944 3.072-4.096.981-1.195 1.685-1.792 2.112-1.792.384 0 .875.213 1.472.64.597.384 1.088.768 1.472 1.152-.725.896-1.536 1.92-2.432 3.072A38.073 38.073 0 0092.5 35.04c-.725 1.152-1.28 2.24-1.664 3.264-.213.725-.32 1.173-.32 1.344 0 .299.085.448.256.448.298 0 .79-.341 1.472-1.024.981-.981 2.048-2.219 3.2-3.712a242.136 242.136 0 003.328-4.544c1.066-1.493 1.941-2.645 2.624-3.456.512-.64 1.045-.96 1.6-.96.469 0 .917.17 1.344.512.469.341.917.768 1.344 1.28-.597.768-1.344 1.813-2.24 3.136a46.1 46.1 0 00-2.368 3.968c-.725 1.365-1.195 2.56-1.408 3.584-.043.17-.086.363-.128.576v.576c0 .64.17.96.512.96.299 0 .704-.235 1.216-.704.64-.597 1.301-1.365 1.984-2.304a90.771 90.771 0 012.24-2.944c.341-.384.64-.747.896-1.088l.896-1.152c.64-.81 1.045-1.216 1.216-1.216.128 0 .085.235-.128.704-.171.47-.427 1.003-.768 1.6-.341.597-.683 1.13-1.024 1.6-.384.597-.811 1.259-1.28 1.984a22.308 22.308 0 01-1.536 1.984 50.44 50.44 0 01-1.856 2.112c-.597.64-1.28.96-2.048.96-1.237 0-2.176-.299-2.816-.896-.597-.597-.896-1.28-.896-2.048 0-.725.192-1.6.576-2.624.426-1.024.79-1.92 1.088-2.688-.299.256-.79.853-1.472 1.792a68.443 68.443 0 01-2.24 2.944 25.484 25.484 0 01-2.432 2.688c-.81.768-1.472 1.152-1.984 1.152z" fill="#FF5C02"/><path d="M112.414 43.488c-1.195 0-2.005-.384-2.432-1.152-.384-.81-.512-1.621-.384-2.432a7.944 7.944 0 011.088-3.008 66.532 66.532 0 011.792-2.56c.427-.555.725-1.024.896-1.408.213-.384.149-.597-.192-.64-.213.17-.555.341-1.024.512-.469.17-.939.256-1.408.256-.384 0-.747-.085-1.088-.256-.341-.17-.576-.47-.704-.896-.427.683-.832 1.323-1.216 1.92-.384.555-.747 1.088-1.088 1.6-.64.896-1.237 1.75-1.792 2.56-.555.768-1.28 1.664-2.176 2.688-.299.341-.576.512-.832.512s-.384-.15-.384-.448c0-.17.064-.341.192-.512a91.517 91.517 0 002.432-3.072l2.24-3.136c.853-1.28 1.6-2.71 2.24-4.288a54.113 54.113 0 001.536-4.224c.384-1.28.597-2.048.64-2.304 1.109.427 1.877.896 2.304 1.408.469.512.704 1.067.704 1.664 0 .81-.384 1.643-1.152 2.496a15.18 15.18 0 01-2.56 2.368c.384.555.832.832 1.344.832.555 0 1.109-.235 1.664-.704.597-.47 1.045-.853 1.344-1.152.683-.853 1.429-1.28 2.24-1.28.469 0 .875.15 1.216.448.384.256.576.597.576 1.024 0 .213-.064.427-.192.64a61.537 61.537 0 00-2.176 3.136 57.184 57.184 0 00-2.24 3.712c-.64 1.195-1.109 2.219-1.408 3.072-.043.17-.085.32-.128.448v.256c0 .341.149.512.448.512.213 0 .469-.085.768-.256.299-.17.533-.341.704-.512.768-.683 1.728-1.75 2.88-3.2a159.57 159.57 0 003.2-4.16c.597-.853 1.003-1.28 1.216-1.28.213 0 .213.277 0 .832-.171.555-.491 1.195-.96 1.92-.64.896-1.387 1.984-2.24 3.264a19.053 19.053 0 01-2.752 3.328c-.981.981-2.027 1.472-3.136 1.472z" fill="#FF5C02"/><path d="M123.986 43.488c-1.024 0-2.048-.299-3.072-.896-.981-.64-1.6-1.75-1.856-3.328-.042-.17-.064-.448-.064-.832 0-1.28.342-2.667 1.024-4.16a21.375 21.375 0 012.752-4.352c1.152-1.365 2.368-2.475 3.648-3.328 1.28-.853 2.496-1.28 3.648-1.28.256.299.662.512 1.216.64.598.128 1.152.256 1.664.384.598.17 1.024.448 1.28.832.299.384.448.81.448 1.28 0 .555-.192 1.173-.576 1.856a7.03 7.03 0 01-1.472 1.728 33.324 33.324 0 01-3.392 2.304 50.934 50.934 0 00-3.52 2.176c-1.024.683-1.685 1.365-1.984 2.048-.085.213-.213.32-.384.32-.298 0-.384-.17-.256-.512.427-1.28 1.174-2.368 2.24-3.264a37.633 37.633 0 013.328-2.496c1.195-.81 2.155-1.664 2.88-2.56.555-.597.832-1.152.832-1.664 0-.555-.298-.832-.896-.832-.512 0-1.066.213-1.664.64-1.706 1.152-3.306 2.688-4.8 4.608-1.493 1.877-2.496 3.819-3.008 5.824a5.843 5.843 0 00-.192 1.408c0 .81.214 1.387.64 1.728.427.299.939.448 1.536.448a5.43 5.43 0 001.6-.256 6.637 6.637 0 001.472-.64 11.54 11.54 0 001.92-1.472c.64-.64 1.174-1.216 1.6-1.728.982-1.237 1.664-1.856 2.048-1.856.214 0 .171.299-.128.896-.256.597-.81 1.43-1.664 2.496a12.7 12.7 0 01-2.944 2.688c-1.109.768-2.41 1.152-3.904 1.152z" fill="#FF5C02"/><path d="M134.033 42.656c-.426 0-.917-.192-1.472-.576-.512-.427-.746-.896-.704-1.408.128-1.835.512-3.904 1.152-6.208a66.86 66.86 0 012.432-7.104 90.621 90.621 0 013.264-7.168 97.22 97.22 0 013.712-6.464c1.238-2.005 2.432-3.67 3.584-4.992 4.736-5.59 9.878-8.384 15.424-8.384.896 0 1.899.15 3.008.448 1.11.256 1.835.555 2.176.896.128.128.192.235.192.32 0 .17-.085.299-.256.384-.17.085-.362.064-.576-.064a7.229 7.229 0 00-1.664-.768c-.512-.17-1.152-.256-1.92-.256-1.877 0-3.904.832-6.08 2.496-2.176 1.621-4.352 3.69-6.528 6.208a58.389 58.389 0 00-5.824 7.744 86.467 86.467 0 00-4.672 8.384 128.67 128.67 0 00-3.456 7.872c-.128.341-.149.555-.064.64.128.085.235.043.32-.128.299-.597.619-1.195.96-1.792.342-.597.726-1.237 1.152-1.92 1.366-2.133 2.731-3.99 4.096-5.568 1.366-1.579 2.646-2.517 3.84-2.816.214.17.619.384 1.216.64.598.213 1.046.427 1.344.64.555.384.832.96.832 1.728 0 .555-.149 1.173-.448 1.856a9.46 9.46 0 01-1.152 1.856c-.981 1.195-1.984 2.027-3.008 2.496-1.024.47-2.048.81-3.072 1.024.086.597.214 1.515.384 2.752.171 1.195.363 2.304.576 3.328.214.768.47 1.323.768 1.664.299.299.619.448.96.448.47 0 .982-.192 1.536-.576a9.959 9.959 0 001.536-1.472 34.403 34.403 0 002.304-2.944 110.287 110.287 0 001.344-1.92c.683-.853 1.11-1.28 1.28-1.28.214 0 .214.277 0 .832-.213.555-.554 1.195-1.024 1.92-.298.47-.661 1.024-1.088 1.664-.426.597-.896 1.237-1.408 1.92-.725 1.024-1.514 1.877-2.368 2.56-.853.64-1.813.96-2.88.96-1.536 0-2.666-.427-3.392-1.28-.725-.853-1.237-1.984-1.536-3.392a153.173 153.173 0 01-.896-4.608 41.682 41.682 0 00-2.432 4.736c-.64 1.579-.96 2.923-.96 4.032 0 .427-.17.64-.512.64zm4.16-9.856c.427-.213.896-.427 1.408-.64.555-.256 1.046-.384 1.472-.384a11.35 11.35 0 001.472-1.024c.47-.427.96-.875 1.472-1.344.47-.47.832-1.024 1.088-1.664.299-.683.448-1.28.448-1.792 0-.597-.192-.896-.576-.896-.298 0-.746.213-1.344.64-.554.427-1.258 1.173-2.112 2.24a132.29 132.29 0 00-1.6 2.24c-.554.81-1.13 1.685-1.728 2.624z" fill="#FF5C02"/></symbol><view id="icon__arrow--down-view" viewBox="0 0 24 24"/>
<use href="#icon__arrow--down" width="24" height="24" x="0" y="0"/>

<view id="icon__default-view" viewBox="0 80 24 24"/>
<use href="#icon__default" width="24" height="24" x="0" y="80"/>
</svg>