<?xml version="1.0" standalone="no"?>
<!DOCTYPE svg PUBLIC "-//W3C//DTD SVG 20010904//EN"
 "http://www.w3.org/TR/2001/REC-SVG-20010904/DTD/svg10.dtd">
<svg version="1.0" xmlns="http://www.w3.org/2000/svg"
 width="400.000000pt" height="400.000000pt" viewBox="0 0 400.000000 400.000000"
 preserveAspectRatio="xMidYMid meet">
<metadata>
Created by potrace 1.14, written by Peter Selinger 2001-2017
</metadata>
<g transform="translate(0.000000,400.000000) scale(0.100000,-0.100000)"
fill="#000000" stroke="none">
<path d="M1140 3994 c-33 -5 -141 -25 -160 -30 -83 -19 -213 -65 -218 -76 -2
-5 -10 -8 -17 -8 -17 0 -120 -58 -198 -112 -224 -156 -393 -383 -481 -648 -65
-198 -64 -182 -62 -1140 1 -476 4 -874 8 -885 3 -11 9 -40 14 -65 4 -25 8 -47
9 -50 1 -3 5 -18 9 -35 4 -16 9 -36 12 -43 2 -7 4 -16 5 -20 1 -4 15 -38 31
-77 134 -325 380 -574 699 -707 75 -31 120 -45 284 -85 17 -4 419 -8 895 -10
804 -2 872 -1 965 16 140 26 223 53 350 115 308 151 540 417 649 746 64 195
64 187 64 1110 0 471 -4 863 -9 900 -9 64 -35 181 -46 210 -3 8 -7 20 -8 25
-2 6 -12 34 -24 62 -145 366 -446 643 -821 757 -176 54 -197 55 -1095 54 -456
0 -841 -2 -855 -4z"/>
</g>
</svg>
